<svg width="116" height="116" viewBox="0 0 116 116" fill="none" xmlns="http://www.w3.org/2000/svg">
<path d="M50.4189 8.32088C54.4869 3.85596 61.5131 3.85596 65.5811 8.32087C68.2797 11.2828 72.4561 12.4019 76.2741 11.1861C82.0295 9.35331 88.1145 12.8665 89.405 18.7672C90.2611 22.6816 93.3184 25.7389 97.2328 26.595C103.134 27.8855 106.647 33.9705 104.814 39.7259C103.598 43.5439 104.717 47.7203 107.679 50.4189C112.144 54.4869 112.144 61.5131 107.679 65.5811C104.717 68.2797 103.598 72.4561 104.814 76.2741C106.647 82.0295 103.134 88.1145 97.2328 89.405C93.3184 90.2611 90.2611 93.3184 89.405 97.2328C88.1145 103.134 82.0295 106.647 76.2741 104.814C72.4561 103.598 68.2797 104.717 65.5811 107.679C61.5131 112.144 54.4869 112.144 50.4189 107.679C47.7203 104.717 43.5439 103.598 39.7259 104.814C33.9705 106.647 27.8855 103.134 26.595 97.2328C25.7389 93.3184 22.6816 90.2611 18.7672 89.405C12.8665 88.1145 9.35331 82.0295 11.1861 76.2741C12.4019 72.4561 11.2828 68.2797 8.32087 65.5811C3.85596 61.5131 3.85596 54.4869 8.32087 50.4189C11.2828 47.7203 12.4019 43.5439 11.1861 39.7259C9.35331 33.9705 12.8665 27.8855 18.7672 26.595C22.6816 25.7389 25.7389 22.6816 26.595 18.7672C27.8855 12.8665 33.9705 9.35331 39.7259 11.1861C43.5439 12.4019 47.7203 11.2828 50.4189 8.32088Z" fill="#FDC138"/>
<path d="M57.9998 50V71.3333M57.9998 50H53.2856C52.5909 50 51.9248 49.7191 51.4336 49.219C50.9424 48.7189 50.6665 48.0406 50.6665 47.3333C50.6665 46.6261 50.9424 45.9478 51.4336 45.4477C51.9248 44.9476 52.5909 44.6667 53.2856 44.6667C56.9522 44.6667 57.9998 50 57.9998 50ZM57.9998 50H62.7141C63.4087 50 64.0749 49.7191 64.5661 49.219C65.0572 48.7189 65.3332 48.0406 65.3332 47.3333C65.3332 46.6261 65.0572 45.9478 64.5661 45.4477C64.0749 44.9476 63.4087 44.6667 62.7141 44.6667C59.0475 44.6667 57.9998 50 57.9998 50ZM68.6665 56.6667V67.0667C68.6665 68.5601 68.6665 69.3069 68.3759 69.8773C68.1202 70.3791 67.7122 70.787 67.2105 71.0427C66.64 71.3333 65.8933 71.3333 64.3998 71.3333L51.5998 71.3333C50.1064 71.3333 49.3596 71.3333 48.7892 71.0427C48.2874 70.787 47.8795 70.3791 47.6238 69.8773C47.3332 69.3069 47.3332 68.5601 47.3332 67.0667V56.6667M44.6665 52.1333L44.6665 54.5333C44.6665 55.2801 44.6665 55.6534 44.8118 55.9387C44.9397 56.1895 45.1436 56.3935 45.3945 56.5213C45.6797 56.6667 46.0531 56.6667 46.7998 56.6667L69.1998 56.6667C69.9466 56.6667 70.3199 56.6667 70.6052 56.5213C70.856 56.3935 71.06 56.1895 71.1878 55.9387C71.3332 55.6534 71.3332 55.2801 71.3332 54.5333V52.1333C71.3332 51.3866 71.3332 51.0132 71.1878 50.728C71.06 50.4771 70.856 50.2732 70.6052 50.1453C70.3199 50 69.9466 50 69.1998 50L46.7998 50C46.0531 50 45.6797 50 45.3945 50.1453C45.1436 50.2732 44.9397 50.4771 44.8118 50.728C44.6665 51.0132 44.6665 51.3866 44.6665 52.1333Z" stroke="white" stroke-width="2" stroke-linecap="round" stroke-linejoin="round"/>
</svg>
