<svg width="232" height="231" viewBox="0 0 232 231" fill="none" xmlns="http://www.w3.org/2000/svg">
<path d="M101.037 16.57C109.138 7.67867 123.13 7.67868 131.23 16.57C136.604 22.4683 144.921 24.6968 152.524 22.2757C163.985 18.626 176.103 25.622 178.673 37.3726C180.378 45.1676 186.466 51.2559 194.261 52.9607C206.012 55.5306 213.008 67.6481 209.358 79.1093C206.937 86.7124 209.165 95.0292 215.064 100.403C223.955 108.504 223.955 122.496 215.064 130.597C209.165 135.971 206.937 144.288 209.358 151.891C213.008 163.352 206.012 175.469 194.261 178.039C186.466 179.744 180.378 185.832 178.673 193.627C176.103 205.378 163.985 212.374 152.524 208.724C144.921 206.303 136.604 208.532 131.23 214.43C123.13 223.321 109.138 223.321 101.037 214.43C95.6628 208.532 87.3459 206.303 79.7429 208.724C68.2816 212.374 56.1642 205.378 53.5943 193.627C51.8895 185.832 45.8011 179.744 38.0061 178.039C26.2555 175.469 19.2595 163.352 22.9092 151.891C25.3303 144.288 23.1018 135.971 17.2036 130.597C8.31222 122.496 8.31221 108.504 17.2036 100.403C23.1018 95.0292 25.3303 86.7124 22.9092 79.1093C19.2595 67.6481 26.2555 55.5306 38.0061 52.9607C45.8011 51.2559 51.8895 45.1676 53.5943 37.3726C56.1642 25.622 68.2816 18.626 79.7428 22.2757C87.3459 24.6968 95.6628 22.4683 101.037 16.57Z" fill="#FDC138"/>
<path d="M91.9855 80.1L87.8655 94H85.2855L82.3655 83.48L79.2655 94L76.7055 94.02L72.7655 80.1H75.1855L78.0655 91.42L81.1855 80.1H83.7455L86.6455 91.36L89.5455 80.1H91.9855ZM95.026 81.52C94.6126 81.52 94.266 81.38 93.986 81.1C93.706 80.82 93.566 80.4733 93.566 80.06C93.566 79.6467 93.706 79.3 93.986 79.02C94.266 78.74 94.6126 78.6 95.026 78.6C95.426 78.6 95.766 78.74 96.046 79.02C96.326 79.3 96.466 79.6467 96.466 80.06C96.466 80.4733 96.326 80.82 96.046 81.1C95.766 81.38 95.426 81.52 95.026 81.52ZM96.146 82.98V94H93.866V82.98H96.146ZM104.699 82.8C105.566 82.8 106.339 82.98 107.019 83.34C107.713 83.7 108.253 84.2333 108.639 84.94C109.026 85.6467 109.219 86.5 109.219 87.5V94H106.959V87.84C106.959 86.8533 106.713 86.1 106.219 85.58C105.726 85.0467 105.053 84.78 104.199 84.78C103.346 84.78 102.666 85.0467 102.159 85.58C101.666 86.1 101.419 86.8533 101.419 87.84V94H99.1394V82.98H101.419V84.24C101.793 83.7867 102.266 83.4333 102.839 83.18C103.426 82.9267 104.046 82.8 104.699 82.8ZM127.243 82.98L120.483 99.18H118.123L120.363 93.82L116.023 82.98H118.563L121.663 91.38L124.883 82.98H127.243ZM133.744 94.18C132.704 94.18 131.764 93.9467 130.924 93.48C130.084 93 129.424 92.3333 128.944 91.48C128.464 90.6133 128.224 89.6133 128.224 88.48C128.224 87.36 128.47 86.3667 128.964 85.5C129.457 84.6333 130.13 83.9667 130.984 83.5C131.837 83.0333 132.79 82.8 133.844 82.8C134.897 82.8 135.85 83.0333 136.704 83.5C137.557 83.9667 138.23 84.6333 138.724 85.5C139.217 86.3667 139.464 87.36 139.464 88.48C139.464 89.6 139.21 90.5933 138.704 91.46C138.197 92.3267 137.504 93 136.624 93.48C135.757 93.9467 134.797 94.18 133.744 94.18ZM133.744 92.2C134.33 92.2 134.877 92.06 135.384 91.78C135.904 91.5 136.324 91.08 136.644 90.52C136.964 89.96 137.124 89.28 137.124 88.48C137.124 87.68 136.97 87.0067 136.664 86.46C136.357 85.9 135.95 85.48 135.444 85.2C134.937 84.92 134.39 84.78 133.804 84.78C133.217 84.78 132.67 84.92 132.164 85.2C131.67 85.48 131.277 85.9 130.984 86.46C130.69 87.0067 130.544 87.68 130.544 88.48C130.544 89.6667 130.844 90.5867 131.444 91.24C132.057 91.88 132.824 92.2 133.744 92.2ZM151.698 82.98V94H149.418V92.7C149.058 93.1533 148.584 93.5133 147.998 93.78C147.424 94.0333 146.811 94.16 146.158 94.16C145.291 94.16 144.511 93.98 143.818 93.62C143.138 93.26 142.598 92.7267 142.198 92.02C141.811 91.3133 141.618 90.46 141.618 89.46V82.98H143.878V89.12C143.878 90.1067 144.124 90.8667 144.618 91.4C145.111 91.92 145.784 92.18 146.638 92.18C147.491 92.18 148.164 91.92 148.658 91.4C149.164 90.8667 149.418 90.1067 149.418 89.12V82.98H151.698ZM156.986 84.58C157.319 84.02 157.759 83.5867 158.306 83.28C158.866 82.96 159.526 82.8 160.286 82.8V85.16H159.706C158.812 85.16 158.132 85.3867 157.666 85.84C157.212 86.2933 156.986 87.08 156.986 88.2V94H154.706V82.98H156.986V84.58ZM73.2314 110.8C74.098 110.8 74.8714 110.98 75.5514 111.34C76.2447 111.7 76.7847 112.233 77.1714 112.94C77.5714 113.647 77.7714 114.5 77.7714 115.5V122H75.5114V115.84C75.5114 114.853 75.2647 114.1 74.7714 113.58C74.278 113.047 73.6047 112.78 72.7514 112.78C71.898 112.78 71.218 113.047 70.7114 113.58C70.218 114.1 69.9714 114.853 69.9714 115.84V122H67.7114V115.84C67.7114 114.853 67.4647 114.1 66.9714 113.58C66.478 113.047 65.8047 112.78 64.9514 112.78C64.098 112.78 63.418 113.047 62.9114 113.58C62.418 114.1 62.1714 114.853 62.1714 115.84V122H59.8914V110.98H62.1714V112.24C62.5447 111.787 63.018 111.433 63.5914 111.18C64.1647 110.927 64.778 110.8 65.4314 110.8C66.3114 110.8 67.098 110.987 67.7914 111.36C68.4847 111.733 69.018 112.273 69.3914 112.98C69.7247 112.313 70.2447 111.787 70.9514 111.4C71.658 111 72.418 110.8 73.2314 110.8ZM90.7726 116.22C90.7726 116.633 90.7459 117.007 90.6926 117.34H82.2726C82.3393 118.22 82.6659 118.927 83.2526 119.46C83.8393 119.993 84.5593 120.26 85.4126 120.26C86.6393 120.26 87.5059 119.747 88.0126 118.72H90.4726C90.1393 119.733 89.5326 120.567 88.6526 121.22C87.7859 121.86 86.7059 122.18 85.4126 122.18C84.3593 122.18 83.4126 121.947 82.5726 121.48C81.7459 121 81.0926 120.333 80.6126 119.48C80.1459 118.613 79.9126 117.613 79.9126 116.48C79.9126 115.347 80.1393 114.353 80.5926 113.5C81.0593 112.633 81.7059 111.967 82.5326 111.5C83.3726 111.033 84.3326 110.8 85.4126 110.8C86.4526 110.8 87.3793 111.027 88.1926 111.48C89.0059 111.933 89.6393 112.573 90.0926 113.4C90.5459 114.213 90.7726 115.153 90.7726 116.22ZM88.3926 115.5C88.3793 114.66 88.0793 113.987 87.4926 113.48C86.9059 112.973 86.1793 112.72 85.3126 112.72C84.5259 112.72 83.8526 112.973 83.2926 113.48C82.7326 113.973 82.3993 114.647 82.2926 115.5H88.3926ZM98.5764 110.8C99.443 110.8 100.216 110.98 100.896 111.34C101.59 111.7 102.13 112.233 102.516 112.94C102.903 113.647 103.096 114.5 103.096 115.5V122H100.836V115.84C100.836 114.853 100.59 114.1 100.096 113.58C99.603 113.047 98.9297 112.78 98.0764 112.78C97.223 112.78 96.543 113.047 96.0364 113.58C95.543 114.1 95.2964 114.853 95.2964 115.84V122H93.0164V110.98H95.2964V112.24C95.6697 111.787 96.143 111.433 96.7164 111.18C97.303 110.927 97.923 110.8 98.5764 110.8ZM108.665 112.84V118.94C108.665 119.353 108.758 119.653 108.945 119.84C109.145 120.013 109.478 120.1 109.945 120.1H111.345V122H109.545C108.518 122 107.731 121.76 107.185 121.28C106.638 120.8 106.365 120.02 106.365 118.94V112.84H105.065V110.98H106.365V108.24H108.665V110.98H111.345V112.84H108.665ZM118.226 122.18C117.186 122.18 116.246 121.947 115.406 121.48C114.566 121 113.906 120.333 113.426 119.48C112.946 118.613 112.706 117.613 112.706 116.48C112.706 115.36 112.953 114.367 113.446 113.5C113.939 112.633 114.613 111.967 115.466 111.5C116.319 111.033 117.273 110.8 118.326 110.8C119.379 110.8 120.333 111.033 121.186 111.5C122.039 111.967 122.713 112.633 123.206 113.5C123.699 114.367 123.946 115.36 123.946 116.48C123.946 117.6 123.693 118.593 123.186 119.46C122.679 120.327 121.986 121 121.106 121.48C120.239 121.947 119.279 122.18 118.226 122.18ZM118.226 120.2C118.813 120.2 119.359 120.06 119.866 119.78C120.386 119.5 120.806 119.08 121.126 118.52C121.446 117.96 121.606 117.28 121.606 116.48C121.606 115.68 121.453 115.007 121.146 114.46C120.839 113.9 120.433 113.48 119.926 113.2C119.419 112.92 118.873 112.78 118.286 112.78C117.699 112.78 117.153 112.92 116.646 113.2C116.153 113.48 115.759 113.9 115.466 114.46C115.173 115.007 115.026 115.68 115.026 116.48C115.026 117.667 115.326 118.587 115.926 119.24C116.539 119.88 117.306 120.2 118.226 120.2ZM128.48 112.58C128.813 112.02 129.253 111.587 129.8 111.28C130.36 110.96 131.02 110.8 131.78 110.8V113.16H131.2C130.307 113.16 129.627 113.387 129.16 113.84C128.707 114.293 128.48 115.08 128.48 116.2V122H126.2V110.98H128.48V112.58ZM137.876 122.18C137.009 122.18 136.229 122.027 135.536 121.72C134.856 121.4 134.316 120.973 133.916 120.44C133.516 119.893 133.302 119.287 133.276 118.62H135.636C135.676 119.087 135.896 119.48 136.296 119.8C136.709 120.107 137.222 120.26 137.836 120.26C138.476 120.26 138.969 120.14 139.316 119.9C139.676 119.647 139.856 119.327 139.856 118.94C139.856 118.527 139.656 118.22 139.256 118.02C138.869 117.82 138.249 117.6 137.396 117.36C136.569 117.133 135.896 116.913 135.376 116.7C134.856 116.487 134.402 116.16 134.016 115.72C133.642 115.28 133.456 114.7 133.456 113.98C133.456 113.393 133.629 112.86 133.976 112.38C134.322 111.887 134.816 111.5 135.456 111.22C136.109 110.94 136.856 110.8 137.696 110.8C138.949 110.8 139.956 111.12 140.716 111.76C141.489 112.387 141.902 113.247 141.956 114.34H139.676C139.636 113.847 139.436 113.453 139.076 113.16C138.716 112.867 138.229 112.72 137.616 112.72C137.016 112.72 136.556 112.833 136.236 113.06C135.916 113.287 135.756 113.587 135.756 113.96C135.756 114.253 135.862 114.5 136.076 114.7C136.289 114.9 136.549 115.06 136.856 115.18C137.162 115.287 137.616 115.427 138.216 115.6C139.016 115.813 139.669 116.033 140.176 116.26C140.696 116.473 141.142 116.793 141.516 117.22C141.889 117.647 142.082 118.213 142.096 118.92C142.096 119.547 141.922 120.107 141.576 120.6C141.229 121.093 140.736 121.48 140.096 121.76C139.469 122.04 138.729 122.18 137.876 122.18ZM150.259 110.8C151.099 110.8 151.846 110.98 152.499 111.34C153.166 111.7 153.686 112.233 154.059 112.94C154.446 113.647 154.639 114.5 154.639 115.5V122H152.379V115.84C152.379 114.853 152.133 114.1 151.639 113.58C151.146 113.047 150.473 112.78 149.619 112.78C148.766 112.78 148.086 113.047 147.579 113.58C147.086 114.1 146.839 114.853 146.839 115.84V122H144.559V107.2H146.839V112.26C147.226 111.793 147.713 111.433 148.299 111.18C148.899 110.927 149.553 110.8 150.259 110.8ZM158.708 109.52C158.294 109.52 157.948 109.38 157.668 109.1C157.388 108.82 157.248 108.473 157.248 108.06C157.248 107.647 157.388 107.3 157.668 107.02C157.948 106.74 158.294 106.6 158.708 106.6C159.108 106.6 159.448 106.74 159.728 107.02C160.008 107.3 160.148 107.647 160.148 108.06C160.148 108.473 160.008 108.82 159.728 109.1C159.448 109.38 159.108 109.52 158.708 109.52ZM159.828 110.98V122H157.548V110.98H159.828ZM165.101 112.6C165.488 112.093 166.014 111.667 166.681 111.32C167.348 110.973 168.101 110.8 168.941 110.8C169.901 110.8 170.774 111.04 171.561 111.52C172.361 111.987 172.988 112.647 173.441 113.5C173.894 114.353 174.121 115.333 174.121 116.44C174.121 117.547 173.894 118.54 173.441 119.42C172.988 120.287 172.361 120.967 171.561 121.46C170.774 121.94 169.901 122.18 168.941 122.18C168.101 122.18 167.354 122.013 166.701 121.68C166.048 121.333 165.514 120.907 165.101 120.4V127.24H162.821V110.98H165.101V112.6ZM171.801 116.44C171.801 115.68 171.641 115.027 171.321 114.48C171.014 113.92 170.601 113.5 170.081 113.22C169.574 112.927 169.028 112.78 168.441 112.78C167.868 112.78 167.321 112.927 166.801 113.22C166.294 113.513 165.881 113.94 165.561 114.5C165.254 115.06 165.101 115.72 165.101 116.48C165.101 117.24 165.254 117.907 165.561 118.48C165.881 119.04 166.294 119.467 166.801 119.76C167.321 120.053 167.868 120.2 168.441 120.2C169.028 120.2 169.574 120.053 170.081 119.76C170.601 119.453 171.014 119.013 171.321 118.44C171.641 117.867 171.801 117.2 171.801 116.44ZM72.4253 140.6C72.8119 140.093 73.3386 139.667 74.0053 139.32C74.6719 138.973 75.4253 138.8 76.2653 138.8C77.2253 138.8 78.0986 139.04 78.8853 139.52C79.6853 139.987 80.3119 140.647 80.7653 141.5C81.2186 142.353 81.4453 143.333 81.4453 144.44C81.4453 145.547 81.2186 146.54 80.7653 147.42C80.3119 148.287 79.6853 148.967 78.8853 149.46C78.0986 149.94 77.2253 150.18 76.2653 150.18C75.4253 150.18 74.6786 150.013 74.0253 149.68C73.3719 149.333 72.8386 148.907 72.4253 148.4V155.24H70.1453V138.98H72.4253V140.6ZM79.1253 144.44C79.1253 143.68 78.9653 143.027 78.6453 142.48C78.3386 141.92 77.9253 141.5 77.4053 141.22C76.8986 140.927 76.3519 140.78 75.7653 140.78C75.1919 140.78 74.6453 140.927 74.1253 141.22C73.6186 141.513 73.2053 141.94 72.8853 142.5C72.5786 143.06 72.4253 143.72 72.4253 144.48C72.4253 145.24 72.5786 145.907 72.8853 146.48C73.2053 147.04 73.6186 147.467 74.1253 147.76C74.6453 148.053 75.1919 148.2 75.7653 148.2C76.3519 148.2 76.8986 148.053 77.4053 147.76C77.9253 147.453 78.3386 147.013 78.6453 146.44C78.9653 145.867 79.1253 145.2 79.1253 144.44ZM85.98 140.58C86.3133 140.02 86.7533 139.587 87.3 139.28C87.86 138.96 88.52 138.8 89.28 138.8V141.16H88.7C87.8066 141.16 87.1266 141.387 86.66 141.84C86.2066 142.293 85.98 143.08 85.98 144.2V150H83.7V138.98H85.98V140.58ZM96.1557 150.18C95.1157 150.18 94.1757 149.947 93.3357 149.48C92.4957 149 91.8357 148.333 91.3557 147.48C90.8757 146.613 90.6357 145.613 90.6357 144.48C90.6357 143.36 90.8824 142.367 91.3757 141.5C91.8691 140.633 92.5424 139.967 93.3957 139.5C94.2491 139.033 95.2024 138.8 96.2557 138.8C97.3091 138.8 98.2624 139.033 99.1157 139.5C99.9691 139.967 100.642 140.633 101.136 141.5C101.629 142.367 101.876 143.36 101.876 144.48C101.876 145.6 101.622 146.593 101.116 147.46C100.609 148.327 99.9157 149 99.0357 149.48C98.1691 149.947 97.2091 150.18 96.1557 150.18ZM96.1557 148.2C96.7424 148.2 97.2891 148.06 97.7957 147.78C98.3157 147.5 98.7357 147.08 99.0557 146.52C99.3757 145.96 99.5357 145.28 99.5357 144.48C99.5357 143.68 99.3824 143.007 99.0757 142.46C98.7691 141.9 98.3624 141.48 97.8557 141.2C97.3491 140.92 96.8024 140.78 96.2157 140.78C95.6291 140.78 95.0824 140.92 94.5757 141.2C94.0824 141.48 93.6891 141.9 93.3957 142.46C93.1024 143.007 92.9557 143.68 92.9557 144.48C92.9557 145.667 93.2557 146.587 93.8557 147.24C94.4691 147.88 95.2357 148.2 96.1557 148.2ZM108.57 138.8C109.423 138.8 110.176 138.973 110.83 139.32C111.496 139.653 112.016 140.073 112.39 140.58V138.98H114.69V150.18C114.69 151.193 114.476 152.093 114.05 152.88C113.623 153.68 113.003 154.307 112.19 154.76C111.39 155.213 110.43 155.44 109.31 155.44C107.816 155.44 106.576 155.087 105.59 154.38C104.603 153.687 104.043 152.74 103.91 151.54H106.17C106.343 152.113 106.71 152.573 107.27 152.92C107.843 153.28 108.523 153.46 109.31 153.46C110.23 153.46 110.97 153.18 111.53 152.62C112.103 152.06 112.39 151.247 112.39 150.18V148.34C112.003 148.86 111.476 149.3 110.81 149.66C110.156 150.007 109.41 150.18 108.57 150.18C107.61 150.18 106.73 149.94 105.93 149.46C105.143 148.967 104.516 148.287 104.05 147.42C103.596 146.54 103.37 145.547 103.37 144.44C103.37 143.333 103.596 142.353 104.05 141.5C104.516 140.647 105.143 139.987 105.93 139.52C106.73 139.04 107.61 138.8 108.57 138.8ZM112.39 144.48C112.39 143.72 112.23 143.06 111.91 142.5C111.603 141.94 111.196 141.513 110.69 141.22C110.183 140.927 109.636 140.78 109.05 140.78C108.463 140.78 107.916 140.927 107.41 141.22C106.903 141.5 106.49 141.92 106.17 142.48C105.863 143.027 105.71 143.68 105.71 144.44C105.71 145.2 105.863 145.867 106.17 146.44C106.49 147.013 106.903 147.453 107.41 147.76C107.93 148.053 108.476 148.2 109.05 148.2C109.636 148.2 110.183 148.053 110.69 147.76C111.196 147.467 111.603 147.04 111.91 146.48C112.23 145.907 112.39 145.24 112.39 144.48ZM119.964 140.58C120.298 140.02 120.738 139.587 121.284 139.28C121.844 138.96 122.504 138.8 123.264 138.8V141.16H122.684C121.791 141.16 121.111 141.387 120.644 141.84C120.191 142.293 119.964 143.08 119.964 144.2V150H117.684V138.98H119.964V140.58ZM124.6 144.44C124.6 143.333 124.827 142.353 125.28 141.5C125.747 140.647 126.373 139.987 127.16 139.52C127.96 139.04 128.84 138.8 129.8 138.8C130.667 138.8 131.42 138.973 132.06 139.32C132.713 139.653 133.233 140.073 133.62 140.58V138.98H135.92V150H133.62V148.36C133.233 148.88 132.707 149.313 132.04 149.66C131.373 150.007 130.613 150.18 129.76 150.18C128.813 150.18 127.947 149.94 127.16 149.46C126.373 148.967 125.747 148.287 125.28 147.42C124.827 146.54 124.6 145.547 124.6 144.44ZM133.62 144.48C133.62 143.72 133.46 143.06 133.14 142.5C132.833 141.94 132.427 141.513 131.92 141.22C131.413 140.927 130.867 140.78 130.28 140.78C129.693 140.78 129.147 140.927 128.64 141.22C128.133 141.5 127.72 141.92 127.4 142.48C127.093 143.027 126.94 143.68 126.94 144.44C126.94 145.2 127.093 145.867 127.4 146.44C127.72 147.013 128.133 147.453 128.64 147.76C129.16 148.053 129.707 148.2 130.28 148.2C130.867 148.2 131.413 148.053 131.92 147.76C132.427 147.467 132.833 147.04 133.14 146.48C133.46 145.907 133.62 145.24 133.62 144.48ZM152.255 138.8C153.121 138.8 153.895 138.98 154.575 139.34C155.268 139.7 155.808 140.233 156.195 140.94C156.595 141.647 156.795 142.5 156.795 143.5V150H154.535V143.84C154.535 142.853 154.288 142.1 153.795 141.58C153.301 141.047 152.628 140.78 151.775 140.78C150.921 140.78 150.241 141.047 149.735 141.58C149.241 142.1 148.995 142.853 148.995 143.84V150H146.735V143.84C146.735 142.853 146.488 142.1 145.995 141.58C145.501 141.047 144.828 140.78 143.975 140.78C143.121 140.78 142.441 141.047 141.935 141.58C141.441 142.1 141.195 142.853 141.195 143.84V150H138.915V138.98H141.195V140.24C141.568 139.787 142.041 139.433 142.615 139.18C143.188 138.927 143.801 138.8 144.455 138.8C145.335 138.8 146.121 138.987 146.815 139.36C147.508 139.733 148.041 140.273 148.415 140.98C148.748 140.313 149.268 139.787 149.975 139.4C150.681 139 151.441 138.8 152.255 138.8ZM162.556 136.1L162.296 145.8H160.396L160.136 136.1H162.556ZM161.416 150.14C161.003 150.14 160.656 150 160.376 149.72C160.096 149.44 159.956 149.093 159.956 148.68C159.956 148.267 160.096 147.92 160.376 147.64C160.656 147.36 161.003 147.22 161.416 147.22C161.816 147.22 162.156 147.36 162.436 147.64C162.716 147.92 162.856 148.267 162.856 148.68C162.856 149.093 162.716 149.44 162.436 149.72C162.156 150 161.816 150.14 161.416 150.14Z" fill="#074C3F"/>
</svg>
