<svg width="664" height="580" viewBox="0 0 664 580" fill="none" xmlns="http://www.w3.org/2000/svg">
<rect width="664" height="580" fill="#074C3F"/>
<rect width="664" height="580" fill="#074C3F"/>
<rect width="664" height="580" fill="#074C3F"/>
<path d="M414.848 294.151L501.062 244.257L587.277 294.151L501.062 344.046L414.848 294.151Z" fill="url(#paint0_linear_2199_1064)"/>
<mask id="mask0_2199_1064" style="mask-type:alpha" maskUnits="userSpaceOnUse" x="412" y="242" width="178" height="96">
<path d="M589.173 251.654C589.173 247.346 589.173 245.192 587.847 243.854C586.522 242.516 584.388 242.516 580.122 242.516H421.639C417.372 242.516 415.239 242.516 413.913 243.854C412.588 245.192 412.588 247.346 412.588 251.654V285.633L412.589 285.635L412.591 285.637C412.498 286.997 413.341 288.375 415.118 289.413L494.767 335.953C498.145 337.927 503.623 337.927 507.001 335.953L586.65 289.413C588.452 288.36 589.293 286.958 589.173 285.579V251.654Z" fill="url(#paint1_linear_2199_1064)"/>
</mask>
<g mask="url(#mask0_2199_1064)">
<path d="M412.584 246.266L501.084 297.405V429.766L412.584 378.626V246.266Z" fill="#227F41"/>
<path d="M589.184 246.266L500.684 297.405V429.766L589.184 378.626V246.266Z" fill="url(#paint2_linear_2199_1064)"/>
<path d="M412.109 256.49L500.883 307.866L589.657 256.49" stroke="#1C6B36"/>
<path d="M412.109 257.49L500.883 308.866L589.657 257.49" stroke="#27924B"/>
</g>
<g filter="url(#filter0_b_2199_1064)">
<path d="M409 245.69L500.883 192.515L592.767 245.69L500.883 298.866L409 245.69Z" fill="#2A9E51"/>
</g>
<path d="M409.866 243.69L500.883 191.016L591.901 243.69L500.883 296.365L409.866 243.69Z" fill="url(#paint3_linear_2199_1064)" fill-opacity="0.5" style="mix-blend-mode:overlay"/>
<path d="M409.866 243.69L500.883 191.016L591.901 243.69L500.883 296.365L409.866 243.69Z" stroke="url(#paint4_linear_2199_1064)"/>
<path d="M414.848 243.901L501.062 194.007L587.277 243.901L501.062 293.796L414.848 243.901Z" fill="url(#paint5_linear_2199_1064)" style="mix-blend-mode:overlay"/>
<circle cx="49.5372" cy="49.5372" r="45.5372" transform="matrix(0.866025 0.5 -0.866025 0.5 501.071 194.817)" stroke="url(#paint6_linear_2199_1064)" stroke-width="8"/>
<path d="M518.18 227.448L487.379 234.517C486.53 234.712 485.592 235.059 484.74 235.492C483.889 235.926 483.208 236.403 482.825 236.836L468.941 252.518C468.294 253.249 468.708 253.618 469.012 253.772C469.317 253.927 470.041 254.138 471.476 253.809L482.683 251.237L495.292 257.657C495.478 257.751 495.739 257.782 495.976 257.752C499.698 257.648 503.616 257.149 507.307 256.308C511.36 255.385 515.034 254.092 518.228 252.466C521.434 250.834 524 249.02 525.855 247.076C526.743 246.145 527.456 245.191 527.975 244.24C528.489 243.298 528.815 242.353 528.944 241.433C528.958 241.331 528.889 241.236 528.766 241.165C528.731 241.116 528.676 241.07 528.599 241.031L515.663 234.445L520.715 228.739C521.362 228.008 520.948 227.639 520.643 227.484C520.34 227.33 519.615 227.119 518.18 227.448ZM527.498 241.501C526.923 245.11 523.186 248.911 517.217 251.951C511.342 254.942 503.644 256.785 496.065 257.019L484.079 250.916L502.277 246.74C503.127 246.545 504.064 246.199 504.916 245.765C505.768 245.331 506.449 244.854 506.831 244.421L515.034 235.156L527.498 241.501ZM519.41 228.439L505.526 244.122C505.217 244.47 504.626 244.881 503.903 245.249C503.181 245.617 502.374 245.918 501.688 246.075L470.887 253.145C470.407 253.255 470.13 253.262 470.033 253.253C470.016 253.204 470.028 253.063 470.246 252.818L484.13 237.136C484.439 236.787 485.031 236.375 485.753 236.008C486.475 235.64 487.282 235.339 487.967 235.182L518.769 228.113C519.249 228.002 519.526 227.995 519.623 228.004C519.64 228.054 519.627 228.194 519.41 228.439Z" fill="#ECFAF1"/>
<path d="M525.486 232.912L520.931 230.593C520.651 230.45 520.198 230.45 519.918 230.593C519.639 230.735 519.639 230.966 519.918 231.108L524.472 233.427C524.143 233.905 524.793 234.446 525.07 234.677L527.175 236.31L527.227 236.336C528.184 236.823 529.649 236.521 530.605 236.034C530.904 235.882 531.297 235.606 531.507 235.285C531.781 234.867 531.655 234.497 531.154 234.242L531.096 234.212L527.945 233.217C527.536 233.088 526.445 232.742 525.486 232.912ZM529.593 235.519C529.166 235.736 528.524 235.911 528.276 235.835L526.286 234.292C525.989 234.044 525.68 233.729 525.879 233.628C525.914 233.61 525.973 233.58 526.199 233.603C526.446 233.628 526.779 233.706 527.19 233.836L530.175 234.779C530.338 234.921 529.998 235.313 529.593 235.519Z" fill="#ECFAF1"/>
<path fill-rule="evenodd" clip-rule="evenodd" d="M482.041 236.656C482.477 236.163 483.227 235.643 484.132 235.183C485.037 234.722 486.058 234.34 487.026 234.118L517.827 227.049C518.655 226.859 519.364 226.805 519.965 226.852C520.573 226.899 520.992 227.042 521.252 227.175C521.512 227.307 521.794 227.52 521.887 227.83C521.978 228.136 521.873 228.497 521.499 228.919C521.499 228.919 521.499 228.919 521.499 228.919L520.499 230.049C520.877 230.058 521.251 230.136 521.539 230.283L525.766 232.435C526.309 232.406 526.819 232.468 527.213 232.54C527.742 232.637 528.179 232.775 528.388 232.842L531.634 233.866L531.763 233.932C532.549 234.332 532.673 234.89 532.324 235.424C532.065 235.818 531.591 236.152 531.214 236.344C530.656 236.628 529.918 236.876 529.122 236.976C528.295 237.079 527.357 237.022 526.619 236.646L526.505 236.588L524.343 234.911L524.33 234.9C524.19 234.784 523.919 234.559 523.733 234.291C523.594 234.093 523.48 233.839 523.535 233.569L519.31 231.418C519.304 231.415 519.299 231.413 519.294 231.41L516.692 234.349L529.207 240.721C529.338 240.787 529.439 240.862 529.513 240.941C529.718 241.087 529.829 241.27 529.802 241.464C529.669 242.415 529.333 243.388 528.804 244.357C528.27 245.335 527.538 246.314 526.629 247.267C524.729 249.259 522.105 251.111 518.837 252.776C515.57 254.439 511.809 255.763 507.659 256.708C503.902 257.564 499.907 258.076 496.091 258.187C495.6 258.234 495.068 258.162 494.684 257.966L482.495 251.761L471.83 254.208C471.83 254.208 471.83 254.208 471.83 254.208C471.001 254.398 470.292 254.452 469.691 254.405C469.083 254.358 468.664 254.215 468.404 254.082C468.144 253.95 467.862 253.737 467.769 253.427C467.678 253.121 467.783 252.76 468.157 252.338L482.041 236.656C482.041 236.656 482.041 236.656 482.041 236.656ZM518.218 228.719L488.321 235.581C487.758 235.71 487.034 235.975 486.361 236.318C485.688 236.66 485.169 237.029 484.915 237.316L471.438 252.538L501.335 245.676C501.335 245.676 501.334 245.676 501.335 245.676C501.898 245.546 502.622 245.282 503.295 244.939C503.968 244.597 504.487 244.228 504.741 243.942C504.741 243.942 504.741 243.942 504.741 243.942L518.218 228.719ZM485.569 251.055L496.397 256.568C503.623 256.292 510.967 254.513 516.608 251.641C522.349 248.718 525.945 245.094 526.605 241.666L515.307 235.914L507.616 244.601C507.18 245.094 506.429 245.614 505.525 246.075C504.62 246.535 503.599 246.917 502.631 247.139L485.569 251.055ZM527.532 234.46L528.667 235.34C528.776 235.304 528.889 235.258 528.985 235.209C529.077 235.162 529.181 235.085 529.259 235.005L527.532 234.46Z" fill="#ECFAF1"/>
<path d="M214.985 376.178L331.072 309.123L478.098 394.049L362.011 461.105L214.985 376.178Z" fill="url(#paint7_linear_2199_1064)"/>
<g filter="url(#filter1_b_2199_1064)">
<path fill-rule="evenodd" clip-rule="evenodd" d="M222.196 364.364C218.37 366.574 218.37 370.157 222.196 372.367L355.367 449.291C359.193 451.501 365.396 451.501 369.222 449.291L431.994 413.032V413.165L472.682 389.673C476.03 387.74 478.744 383.039 478.744 379.173V351.423C478.744 346.453 475.255 344.438 470.95 346.923L432.547 369.095L323.276 305.977L222.196 364.364Z" fill="url(#paint8_linear_2199_1064)"/>
<path d="M222.196 372.367L221.946 372.8L221.946 372.8L222.196 372.367ZM222.196 364.364L221.946 363.931L221.946 363.931L222.196 364.364ZM355.367 449.291L355.617 448.858L355.617 448.858L355.367 449.291ZM369.222 449.291L368.972 448.858L368.972 448.858L369.222 449.291ZM431.994 413.032H432.494V412.165L431.744 412.599L431.994 413.032ZM431.994 413.165H431.494V414.031L432.244 413.598L431.994 413.165ZM472.682 389.673L472.932 390.106L472.932 390.106L472.682 389.673ZM470.95 346.923L471.2 347.356L471.2 347.356L470.95 346.923ZM432.547 369.095L432.297 369.528L432.547 369.673L432.797 369.528L432.547 369.095ZM323.276 305.977L323.527 305.544L323.276 305.4L323.026 305.544L323.276 305.977ZM222.446 371.934C220.624 370.882 219.827 369.573 219.827 368.366C219.827 367.159 220.624 365.85 222.446 364.797L221.946 363.931C219.942 365.089 218.827 366.676 218.827 368.366C218.827 370.055 219.942 371.643 221.946 372.8L222.446 371.934ZM355.617 448.858L222.446 371.934L221.946 372.8L355.117 449.724L355.617 448.858ZM368.972 448.858C367.153 449.908 364.737 450.448 362.295 450.448C359.852 450.448 357.436 449.908 355.617 448.858L355.117 449.724C357.124 450.883 359.723 451.448 362.295 451.448C364.866 451.448 367.465 450.883 369.472 449.724L368.972 448.858ZM431.744 412.599L368.972 448.858L369.472 449.724L432.244 413.465L431.744 412.599ZM432.494 413.165V413.032H431.494V413.165H432.494ZM472.432 389.24L431.744 412.732L432.244 413.598L472.932 390.106L472.432 389.24ZM478.244 379.173C478.244 380.998 477.6 383.054 476.536 384.898C475.471 386.743 474.012 388.328 472.432 389.24L472.932 390.106C474.7 389.086 476.272 387.354 477.402 385.398C478.531 383.442 479.244 381.215 479.244 379.173H478.244ZM478.244 351.423V379.173H479.244V351.423H478.244ZM471.2 347.356C473.261 346.166 475.01 346.117 476.211 346.811C477.413 347.504 478.244 349.043 478.244 351.423H479.244C479.244 348.833 478.331 346.88 476.711 345.945C475.092 345.009 472.943 345.195 470.7 346.49L471.2 347.356ZM432.797 369.528L471.2 347.356L470.7 346.49L432.297 368.662L432.797 369.528ZM323.026 306.41L432.297 369.528L432.797 368.662L323.527 305.544L323.026 306.41ZM222.446 364.797L323.527 306.41L323.026 305.544L221.946 363.931L222.446 364.797Z" fill="url(#paint9_linear_2199_1064)"/>
</g>
<path d="M215.851 362.178L331.072 295.623L477.232 380.049L362.011 446.604L215.851 362.178Z" fill="url(#paint10_linear_2199_1064)" fill-opacity="0.5" style="mix-blend-mode:overlay"/>
<path d="M215.851 362.178L331.072 295.623L477.232 380.049L362.011 446.604L215.851 362.178Z" stroke="url(#paint11_linear_2199_1064)"/>
<path d="M215.851 354.178L331.072 287.623L477.232 372.049L362.011 438.604L215.851 354.178Z" fill="url(#paint12_linear_2199_1064)" fill-opacity="0.5" style="mix-blend-mode:overlay"/>
<path d="M215.851 354.178L331.072 287.623L477.232 372.049L362.011 438.604L215.851 354.178Z" stroke="url(#paint13_linear_2199_1064)"/>
<path d="M215.851 345.178L331.072 278.623L477.232 363.049L362.011 429.604L215.851 345.178Z" fill="url(#paint14_linear_2199_1064)" fill-opacity="0.5" style="mix-blend-mode:overlay"/>
<path d="M215.851 345.178L331.072 278.623L477.232 363.049L362.011 429.604L215.851 345.178Z" stroke="url(#paint15_linear_2199_1064)"/>
<path d="M215.851 337.178L331.072 270.623L477.232 355.049L362.011 421.604L215.851 337.178Z" fill="url(#paint16_linear_2199_1064)" fill-opacity="0.5" style="mix-blend-mode:overlay"/>
<path d="M215.851 337.178L331.072 270.623L477.232 355.049L362.011 421.604L215.851 337.178Z" stroke="url(#paint17_linear_2199_1064)"/>
<g filter="url(#filter2_b_2199_1064)">
<mask id="path-23-inside-1_2199_1064" fill="white">
<path fill-rule="evenodd" clip-rule="evenodd" d="M328.672 260.959C329.829 260.963 330.791 261.325 331.589 261.716L331.605 261.724L476.725 345.981C477.05 346.17 477.235 346.508 477.243 346.86L477.338 346.916C477.322 346.908 477.305 346.9 477.289 346.892C477.273 346.885 477.258 346.878 477.243 346.871C477.245 347.038 477.206 347.209 477.122 347.367C475.441 346.564 473.585 346.386 471.669 347.243L367.064 407.666C363.238 409.876 357.035 409.876 353.209 407.666L220.038 330.742C216.212 328.532 216.212 324.949 220.038 322.739L324.511 262.393L324.693 262.276C326.197 261.311 327.509 260.954 328.672 260.959Z"/>
</mask>
<path fill-rule="evenodd" clip-rule="evenodd" d="M328.672 260.959C329.829 260.963 330.791 261.325 331.589 261.716L331.605 261.724L476.725 345.981C477.05 346.17 477.235 346.508 477.243 346.86L477.338 346.916C477.322 346.908 477.305 346.9 477.289 346.892C477.273 346.885 477.258 346.878 477.243 346.871C477.245 347.038 477.206 347.209 477.122 347.367C475.441 346.564 473.585 346.386 471.669 347.243L367.064 407.666C363.238 409.876 357.035 409.876 353.209 407.666L220.038 330.742C216.212 328.532 216.212 324.949 220.038 322.739L324.511 262.393L324.693 262.276C326.197 261.311 327.509 260.954 328.672 260.959Z" fill="#2A9E51"/>
<path d="M331.589 261.716L331.149 262.614L331.589 261.716ZM328.672 260.959L328.668 261.959L328.672 260.959ZM331.605 261.724L332.107 260.859L332.076 260.841L332.044 260.826L331.605 261.724ZM476.725 345.981L476.223 346.846L476.223 346.846L476.725 345.981ZM477.243 346.86L476.243 346.881L476.255 347.443L476.741 347.725L477.243 346.86ZM477.338 346.916L476.907 347.818L477.84 346.051L477.338 346.916ZM477.289 346.892L477.714 345.987L477.713 345.987L477.289 346.892ZM477.243 346.871L477.662 345.963L476.226 345.299L476.243 346.881L477.243 346.871ZM477.122 347.367L476.691 348.269L477.558 348.683L478.007 347.834L477.122 347.367ZM471.669 347.243L471.261 346.33L471.213 346.351L471.169 346.377L471.669 347.243ZM367.064 407.666L367.564 408.532L367.564 408.532L367.064 407.666ZM353.209 407.666L352.709 408.532L352.709 408.532L353.209 407.666ZM220.038 330.742L219.538 331.608L219.538 331.608L220.038 330.742ZM220.038 322.739L219.538 321.873L219.538 321.873L220.038 322.739ZM324.511 262.393L325.011 263.259L325.031 263.247L325.05 263.235L324.511 262.393ZM324.693 262.276L325.233 263.118L325.233 263.118L324.693 262.276ZM332.029 260.818C331.165 260.395 330.047 259.964 328.675 259.959L328.668 261.959C329.612 261.962 330.416 262.255 331.149 262.614L332.029 260.818ZM332.044 260.826L332.029 260.818L331.149 262.614L331.165 262.622L332.044 260.826ZM477.227 345.117L332.107 260.859L331.103 262.589L476.223 346.846L477.227 345.117ZM478.242 346.839C478.228 346.152 477.865 345.487 477.227 345.117L476.223 346.846C476.23 346.851 476.234 346.855 476.237 346.86C476.241 346.866 476.243 346.874 476.243 346.881L478.242 346.839ZM477.84 346.051L477.745 345.995L476.741 347.725L476.836 347.78L477.84 346.051ZM476.863 347.797C476.878 347.804 476.892 347.811 476.907 347.818L477.769 346.013C477.751 346.004 477.732 345.996 477.714 345.987L476.863 347.797ZM476.823 347.778C476.837 347.785 476.85 347.791 476.864 347.797L477.713 345.987C477.697 345.979 477.68 345.971 477.662 345.963L476.823 347.778ZM478.007 347.834C478.17 347.525 478.246 347.19 478.243 346.86L476.243 346.881C476.243 346.884 476.242 346.887 476.242 346.89C476.241 346.892 476.24 346.896 476.238 346.9L478.007 347.834ZM472.077 348.156C473.688 347.436 475.236 347.574 476.691 348.269L477.553 346.464C475.647 345.554 473.482 345.337 471.261 346.33L472.077 348.156ZM471.169 346.377L366.564 406.8L367.564 408.532L472.169 348.109L471.169 346.377ZM366.564 406.8C364.839 407.796 362.515 408.323 360.136 408.323C357.758 408.323 355.434 407.796 353.709 406.8L352.709 408.532C354.81 409.745 357.5 410.323 360.136 410.323C362.773 410.323 365.463 409.745 367.564 408.532L366.564 406.8ZM353.709 406.8L220.538 329.876L219.538 331.608L352.709 408.532L353.709 406.8ZM220.538 329.876C218.807 328.877 218.168 327.706 218.168 326.741C218.168 325.775 218.807 324.605 220.538 323.605L219.538 321.873C217.442 323.084 216.168 324.81 216.168 326.741C216.168 328.672 217.442 330.398 219.538 331.608L220.538 329.876ZM220.538 323.605L325.011 263.259L324.011 261.527L219.538 321.873L220.538 323.605ZM324.153 261.434L323.971 261.551L325.05 263.235L325.233 263.118L324.153 261.434ZM328.675 259.959C327.289 259.953 325.791 260.384 324.153 261.434L325.233 263.118C326.603 262.239 327.729 261.955 328.668 261.959L328.675 259.959Z" fill="url(#paint18_linear_2199_1064)" mask="url(#path-23-inside-1_2199_1064)"/>
</g>
<mask id="mask1_2199_1064" style="mask-type:alpha" maskUnits="userSpaceOnUse" x="215" y="261" width="260" height="149">
<mask id="path-25-inside-2_2199_1064" fill="white">
<path fill-rule="evenodd" clip-rule="evenodd" d="M470.676 346.648C472.421 345.714 473.561 345.56 474.881 345.782L330.385 262.154C328.974 261.464 327.166 260.932 324.641 262.295L323.651 261.723L218.147 322.665C214.321 324.875 214.321 328.458 218.147 330.668L351.318 407.591C355.144 409.801 361.347 409.801 365.173 407.591L469.572 347.288L469.576 347.29C469.608 347.27 469.639 347.25 469.67 347.231L470.677 346.649L470.676 346.648Z"/>
</mask>
<path fill-rule="evenodd" clip-rule="evenodd" d="M470.676 346.648C472.421 345.714 473.561 345.56 474.881 345.782L330.385 262.154C328.974 261.464 327.166 260.932 324.641 262.295L323.651 261.723L218.147 322.665C214.321 324.875 214.321 328.458 218.147 330.668L351.318 407.591C355.144 409.801 361.347 409.801 365.173 407.591L469.572 347.288L469.576 347.29C469.608 347.27 469.639 347.25 469.67 347.231L470.677 346.649L470.676 346.648Z" fill="#26914A"/>
<path d="M474.881 345.782L474.715 346.768L475.381 344.916L474.881 345.782ZM470.676 346.648L470.204 345.767L468.622 346.614L470.175 347.514L470.676 346.648ZM330.385 262.154L330.886 261.289L330.856 261.272L330.825 261.256L330.385 262.154ZM324.641 262.295L324.141 263.16L324.625 263.44L325.116 263.175L324.641 262.295ZM323.651 261.723L324.152 260.857L323.651 260.568L323.151 260.857L323.651 261.723ZM218.147 322.665L217.647 321.799L217.647 321.799L218.147 322.665ZM218.147 330.668L217.647 331.534L217.647 331.534L218.147 330.668ZM351.318 407.591L350.818 408.457L350.818 408.457L351.318 407.591ZM365.173 407.591L365.673 408.457L365.673 408.457L365.173 407.591ZM469.572 347.288L470.075 346.423L469.574 346.132L469.072 346.422L469.572 347.288ZM469.576 347.29L469.073 348.154L469.594 348.457L470.105 348.138L469.576 347.29ZM469.67 347.231L469.17 346.365L469.158 346.372L469.145 346.38L469.67 347.231ZM470.677 346.649L471.178 347.515L472.675 346.65L471.179 345.784L470.677 346.649ZM475.047 344.796C473.473 344.531 472.11 344.747 470.204 345.767L471.148 347.53C472.732 346.682 473.649 346.588 474.715 346.768L475.047 344.796ZM329.884 263.02L474.38 346.647L475.381 344.916L330.886 261.289L329.884 263.02ZM325.116 263.175C326.234 262.571 327.136 262.415 327.879 262.453C328.633 262.492 329.299 262.736 329.945 263.053L330.825 261.256C330.06 260.882 329.116 260.515 327.982 260.456C326.837 260.397 325.573 260.655 324.166 261.415L325.116 263.175ZM323.151 262.589L324.141 263.16L325.141 261.429L324.152 260.857L323.151 262.589ZM218.647 323.531L324.152 262.589L323.151 260.857L217.647 321.799L218.647 323.531ZM218.647 329.802C216.917 328.802 216.278 327.632 216.278 326.667C216.278 325.701 216.917 324.531 218.647 323.531L217.647 321.799C215.552 323.009 214.278 324.735 214.278 326.667C214.278 328.598 215.552 330.324 217.647 331.534L218.647 329.802ZM351.819 406.726L218.647 329.802L217.647 331.534L350.818 408.457L351.819 406.726ZM364.673 406.726C362.948 407.722 360.624 408.249 358.246 408.249C355.868 408.249 353.544 407.722 351.819 406.726L350.818 408.457C352.919 409.671 355.61 410.249 358.246 410.249C360.882 410.249 363.573 409.671 365.673 408.457L364.673 406.726ZM469.072 346.422L364.673 406.726L365.673 408.457L470.073 348.153L469.072 346.422ZM470.078 346.425L470.075 346.423L469.07 348.152L469.073 348.154L470.078 346.425ZM469.145 346.38C469.112 346.4 469.08 346.42 469.047 346.441L470.105 348.138C470.135 348.119 470.166 348.1 470.196 348.082L469.145 346.38ZM470.177 345.783L469.17 346.365L470.17 348.097L471.178 347.515L470.177 345.783ZM470.175 347.514L470.176 347.514L471.179 345.784L471.177 345.783L470.175 347.514Z" fill="url(#paint19_linear_2199_1064)" mask="url(#path-25-inside-2_2199_1064)"/>
</mask>
<g mask="url(#mask1_2199_1064)">
<path d="M526.349 370.713L323.399 370.724L321.11 367.137L288.15 345.723L301.687 332.829L316.606 332.75L316.036 328.904L331.983 319.778L350.487 319.775L349.709 308.565L358.922 302.635L402.589 302.944L419.626 312.693L458.071 334.693L526.349 370.713Z" fill="#096328"/>
<path d="M343.604 322.985C336.407 318.866 326.182 318.964 318.742 323.221L307.456 329.68L351.247 354.739L362.533 348.28C369.976 344.021 370.172 338.184 363.011 334.086C358.762 331.655 353.365 330.73 348.016 331.487C349.388 328.409 347.849 325.414 343.604 322.985ZM333.064 335.964L321.723 329.474L325.081 327.553C328.037 325.862 332.767 325.153 336.661 327.381C340.598 329.634 339.377 332.351 336.422 334.043L333.064 335.964ZM355.079 337.921C359.081 340.211 357.824 343.015 354.963 344.653L351.605 346.574L340.018 339.944L343.376 338.022C347.48 335.674 352.21 336.279 355.079 337.921Z" fill="white"/>
<path d="M323.502 370.615L330.815 366.431L312.15 355.75L327.041 347.229L320.086 343.25L305.196 351.77L293.979 345.351L308.869 336.83L301.915 332.851L279.711 345.557L323.502 370.615Z" fill="white"/>
<path d="M370.498 315.587L367.235 316.256C361.291 317.489 357.39 317.322 354.583 315.715C351.048 313.692 352.196 311.19 354.76 309.723C357.995 307.872 363.037 307.864 366.481 309.702L367.003 309.98L373.943 306.009L373.403 305.712C365.942 301.596 355.257 301.625 347.995 305.781C340.754 309.924 340.493 316.026 347.393 319.975C352.997 323.181 360.907 323.678 370.9 321.45L374.349 320.675C379.883 319.427 383.817 319.622 386.732 321.291C389.898 323.102 389.826 325.482 386.555 327.353C383.769 328.947 378.742 329.818 373.736 327.028L373.215 326.738L366.213 330.744L367.535 331.501C374.939 335.737 385.758 335.698 393.263 331.403C400.608 327.2 400.92 321.036 393.987 317.069C386.805 312.958 377.663 314.119 370.498 315.587Z" fill="white"/>
</g>
<rect x="0.411351" y="0.233917" width="256.554" height="176.141" transform="matrix(0.859406 -0.511293 0 1 119.058 156.874)" stroke="#2A9E51" stroke-opacity="0.1" stroke-width="0.957291"/>
<g clip-path="url(#clip0_2199_1064)">
<line opacity="0.6" x1="0.389806" y1="-0.389806" x2="153.74" y2="-0.389806" transform="matrix(-3.75658e-08 1 -0.859406 0.511293 136.692 171.912)" stroke="#17673E" stroke-opacity="0.44" stroke-width="0.779611" stroke-linecap="round" stroke-dasharray="0.78 3.12"/>
<line opacity="0.6" x1="0.239323" y1="-0.239323" x2="126.244" y2="-0.239323" transform="matrix(-4.58765e-08 1 -0.859406 0.511293 159.699 186.207)" stroke="white" stroke-opacity="0.44" stroke-width="0.478645" stroke-linecap="round" stroke-dasharray="0.78 3.12"/>
<line opacity="0.6" x1="0.239323" y1="-0.239323" x2="125.694" y2="-0.239323" transform="matrix(-4.58765e-08 1 -0.859406 0.511293 183.117 172.274)" stroke="white" stroke-opacity="0.44" stroke-width="0.478645" stroke-linecap="round" stroke-dasharray="0.78 3.12"/>
<line opacity="0.6" x1="0.239323" y1="-0.239323" x2="154.226" y2="-0.239323" transform="matrix(-3.75658e-08 1 -0.859406 0.511293 206.945 130.116)" stroke="white" stroke-opacity="0.44" stroke-width="0.478645" stroke-linecap="round" stroke-dasharray="0.78 3.12"/>
<line opacity="0.6" x1="0.239323" y1="-0.239323" x2="154.226" y2="-0.239323" transform="matrix(-2.56957e-08 1 -0.859406 0.511293 230.774 115.939)" stroke="white" stroke-opacity="0.44" stroke-width="0.478645" stroke-linecap="round" stroke-dasharray="0.78 3.12"/>
<line opacity="0.6" x1="0.239323" y1="-0.239323" x2="154.226" y2="-0.239323" transform="matrix(-3.75658e-08 1 -0.859406 0.511293 254.604 101.762)" stroke="white" stroke-opacity="0.44" stroke-width="0.478645" stroke-linecap="round" stroke-dasharray="0.78 3.12"/>
<line opacity="0.6" x1="0.239323" y1="-0.239323" x2="154.226" y2="-0.239323" transform="matrix(-2.56957e-08 1 -0.859406 0.511293 278.433 87.5852)" stroke="white" stroke-opacity="0.44" stroke-width="0.478645" stroke-linecap="round" stroke-dasharray="0.78 3.12"/>
<line opacity="0.6" x1="0.239323" y1="-0.239323" x2="122.814" y2="-0.239323" transform="matrix(-2.56957e-08 1 -0.859406 0.511293 302.262 73.4084)" stroke="white" stroke-opacity="0.44" stroke-width="0.478645" stroke-linecap="round" stroke-dasharray="0.78 3.12"/>
<line opacity="0.6" x1="0.239323" y1="-0.239323" x2="122.546" y2="-0.239323" transform="matrix(-3.75658e-08 1 -0.859406 0.511293 326.091 59.2317)" stroke="white" stroke-opacity="0.44" stroke-width="0.478645" stroke-linecap="round" stroke-dasharray="0.78 3.12"/>
<line opacity="0.6" x1="0.389806" y1="-0.389806" x2="153.74" y2="-0.389806" transform="matrix(-3.75658e-08 1 -0.859406 0.511293 349.92 45.0549)" stroke="#17673E" stroke-opacity="0.44" stroke-width="0.779611" stroke-linecap="round" stroke-dasharray="0.78 3.12"/>
<path d="M155.868 262.102L158.167 260.307C160.466 258.512 165.064 254.923 169.663 248.453C174.261 241.984 178.859 232.634 183.457 225.045C188.055 217.455 192.653 211.625 197.251 209.371C201.849 207.116 206.447 208.437 211.046 204.598C215.644 200.759 220.242 191.76 224.84 188.26C229.438 184.759 234.036 186.758 238.634 180.638C243.232 174.518 247.831 160.279 252.429 161.707C257.027 163.136 261.625 180.232 266.223 175.885C270.821 171.537 275.419 145.746 280.017 140.447C284.616 135.149 289.214 150.343 293.812 152.294C298.41 154.246 303.008 142.954 307.606 139.408C312.204 135.862 316.802 140.063 321.401 139.621C325.999 139.18 330.597 134.097 332.896 131.555L335.195 129.013" stroke="white" stroke-width="2.87187"/>
<circle cx="4.30234" cy="4.30234" r="3.34505" transform="matrix(0.859406 -0.511293 0 1 179.498 194.519)" stroke="white" stroke-width="1.91458"/>
<circle cx="4.30234" cy="4.30234" r="3.34505" transform="matrix(0.859406 -0.511293 0 1 250.566 130.364)" stroke="white" stroke-width="1.91458"/>
<circle cx="4.30234" cy="4.30234" r="3.34505" transform="matrix(0.859406 -0.511293 0 1 297.772 172.311)" stroke="white" stroke-width="1.91458"/>
<path d="M304.393 212.041C304.494 211.778 304.746 211.628 304.847 211.771L307.793 215.955C307.893 216.099 307.767 216.427 307.566 216.547L301.674 220.052C301.473 220.172 301.347 219.993 301.448 219.73L304.393 212.041Z" fill="#31B95F"/>
<path d="M316.712 208.054L314.894 209.136V211.304L313.94 211.872V209.703L312.122 210.785V209.78L313.94 208.698V206.53L314.894 205.962V208.13L316.712 207.049V208.054ZM318.169 206.548C318.169 205.34 318.343 204.294 318.691 203.41C319.045 202.515 319.652 201.812 320.51 201.302C321.368 200.791 321.971 200.774 322.319 201.252C322.673 201.718 322.85 202.556 322.85 203.764C322.85 204.986 322.673 206.048 322.319 206.949C321.971 207.841 321.368 208.542 320.51 209.052C319.652 209.563 319.045 209.581 318.691 209.108C318.343 208.623 318.169 207.77 318.169 206.548ZM321.842 204.363C321.842 203.798 321.809 203.339 321.743 202.987C321.683 202.632 321.557 202.389 321.365 202.259C321.173 202.122 320.888 202.166 320.51 202.391C320.132 202.616 319.847 202.911 319.655 203.277C319.463 203.635 319.334 204.03 319.268 204.46C319.208 204.887 319.178 205.383 319.178 205.949C319.178 206.535 319.208 207.01 319.268 207.372C319.328 207.734 319.454 207.98 319.646 208.11C319.844 208.237 320.132 208.188 320.51 207.963C320.888 207.738 321.173 207.446 321.365 207.088C321.563 206.725 321.692 206.328 321.752 205.894C321.812 205.46 321.842 204.95 321.842 204.363ZM324.485 206.782C324.299 206.892 324.143 206.912 324.017 206.84C323.891 206.768 323.828 206.624 323.828 206.408C323.828 206.191 323.891 205.972 324.017 205.751C324.143 205.529 324.299 205.363 324.485 205.252C324.665 205.145 324.818 205.128 324.944 205.199C325.07 205.271 325.133 205.415 325.133 205.631C325.133 205.848 325.07 206.067 324.944 206.288C324.818 206.51 324.665 206.674 324.485 206.782ZM329.635 197.779C329.569 197.497 329.449 197.327 329.275 197.27C329.101 197.213 328.858 197.277 328.546 197.463C328.072 197.745 327.718 198.169 327.484 198.734C327.25 199.292 327.127 200.063 327.115 201.048C327.271 200.648 327.499 200.275 327.799 199.929C328.099 199.583 328.423 199.306 328.771 199.099C329.167 198.864 329.515 198.758 329.815 198.782C330.122 198.795 330.359 198.94 330.527 199.218C330.701 199.491 330.788 199.89 330.788 200.413C330.788 200.902 330.704 201.389 330.536 201.873C330.374 202.353 330.131 202.801 329.806 203.218C329.482 203.627 329.092 203.967 328.636 204.238C328.018 204.606 327.532 204.738 327.178 204.635C326.83 204.52 326.584 204.216 326.44 203.723C326.302 203.225 326.233 202.544 326.233 201.678C326.233 199.122 327.007 197.384 328.555 196.463C329.155 196.106 329.626 196.014 329.969 196.187C330.317 196.357 330.521 196.7 330.581 197.216L329.635 197.779ZM328.546 200.239C328.18 200.456 327.868 200.771 327.61 201.183C327.358 201.584 327.232 202.026 327.232 202.508C327.232 202.989 327.349 203.304 327.583 203.451C327.823 203.587 328.156 203.529 328.582 203.275C328.96 203.051 329.257 202.738 329.473 202.337C329.695 201.932 329.806 201.503 329.806 201.049C329.806 200.575 329.698 200.262 329.482 200.111C329.272 199.95 328.96 199.992 328.546 200.239ZM331.72 196.612C331.72 196.102 331.846 195.629 332.098 195.193C332.356 194.746 332.686 194.403 333.088 194.164C333.49 193.925 333.817 193.877 334.069 194.02C334.328 194.153 334.457 194.474 334.457 194.984C334.457 195.493 334.328 195.972 334.069 196.418C333.817 196.862 333.49 197.203 333.088 197.442C332.686 197.681 332.356 197.731 332.098 197.591C331.846 197.448 331.72 197.121 331.72 196.612ZM337.211 191.847L333.619 201.274L332.611 201.874L336.203 192.447L337.211 191.847ZM333.088 194.886C332.71 195.111 332.521 195.528 332.521 196.135C332.521 196.75 332.71 196.944 333.088 196.719C333.268 196.612 333.406 196.457 333.502 196.253C333.604 196.039 333.655 195.775 333.655 195.46C333.655 194.853 333.466 194.662 333.088 194.886ZM335.384 198.716C335.384 198.206 335.51 197.733 335.762 197.297C336.02 196.85 336.35 196.507 336.752 196.268C337.148 196.032 337.472 195.986 337.724 196.13C337.982 196.262 338.111 196.584 338.111 197.093C338.111 197.603 337.982 198.081 337.724 198.528C337.472 198.971 337.148 199.311 336.752 199.546C336.35 199.785 336.02 199.835 335.762 199.695C335.51 199.552 335.384 199.226 335.384 198.716ZM336.743 196.996C336.365 197.221 336.176 197.637 336.176 198.245C336.176 198.852 336.365 199.043 336.743 198.818C337.121 198.594 337.31 198.177 337.31 197.57C337.31 196.962 337.121 196.771 336.743 196.996Z" fill="#31B95F"/>
<rect x="0.281288" y="0.159957" width="61.0677" height="19.4376" rx="9.71881" transform="matrix(0.859406 -0.511293 0 1 293.576 211.719)" stroke="#31B95F" stroke-width="0.654611"/>
<path d="M155.375 167.722C155.476 167.459 155.728 167.309 155.829 167.452L158.774 171.637C158.875 171.78 158.749 172.109 158.548 172.228L152.656 175.734C152.455 175.853 152.329 175.675 152.429 175.412L155.375 167.722Z" fill="#31B95F"/>
<path d="M167.694 163.735L165.876 164.817V166.985L164.922 167.553V165.385L163.104 166.467V165.461L164.922 164.379V162.211L165.876 161.644V163.812L167.694 162.73V163.735ZM169.151 162.23C169.151 161.022 169.325 159.976 169.673 159.091C170.027 158.196 170.634 157.494 171.492 156.983C172.35 156.473 172.953 156.456 173.301 156.933C173.655 157.4 173.832 158.237 173.832 159.445C173.832 160.667 173.655 161.729 173.301 162.631C172.953 163.522 172.35 164.223 171.492 164.734C170.634 165.244 170.027 165.263 169.673 164.789C169.325 164.305 169.151 163.452 169.151 162.23ZM172.824 160.045C172.824 159.479 172.791 159.021 172.725 158.669C172.665 158.314 172.539 158.071 172.347 157.941C172.155 157.804 171.87 157.847 171.492 158.072C171.114 158.297 170.829 158.593 170.637 158.958C170.444 159.317 170.315 159.711 170.249 160.142C170.189 160.568 170.159 161.064 170.159 161.63C170.159 162.217 170.189 162.691 170.249 163.053C170.309 163.416 170.435 163.662 170.628 163.792C170.826 163.918 171.114 163.869 171.492 163.644C171.87 163.419 172.155 163.128 172.347 162.769C172.545 162.407 172.674 162.009 172.734 161.575C172.794 161.141 172.824 160.631 172.824 160.045ZM175.467 162.463C175.281 162.574 175.125 162.593 174.999 162.521C174.873 162.45 174.81 162.306 174.81 162.089C174.81 161.873 174.873 161.654 174.999 161.432C175.125 161.211 175.281 161.044 175.467 160.934C175.647 160.827 175.8 160.809 175.926 160.881C176.052 160.952 176.115 161.096 176.115 161.313C176.115 161.529 176.052 161.748 175.926 161.97C175.8 162.191 175.647 162.356 175.467 162.463ZM178.196 156.775C177.572 156.784 177.26 156.397 177.26 155.615C177.26 155.238 177.341 154.844 177.503 154.433C177.665 154.023 177.908 153.63 178.232 153.256C178.556 152.874 178.952 152.545 179.42 152.266C179.882 151.991 180.275 151.852 180.599 151.847C180.929 151.832 181.175 151.934 181.337 152.152C181.5 152.37 181.581 152.667 181.581 153.044C181.581 153.435 181.494 153.833 181.319 154.236C181.151 154.63 180.926 154.99 180.644 155.319C180.986 155.262 181.256 155.342 181.455 155.559C181.653 155.77 181.752 156.098 181.752 156.545C181.752 156.999 181.653 157.46 181.455 157.927C181.256 158.394 180.98 158.827 180.626 159.226C180.272 159.625 179.87 159.958 179.42 160.226C178.97 160.494 178.568 160.639 178.214 160.661C177.866 160.679 177.593 160.573 177.395 160.342C177.197 160.11 177.098 159.768 177.098 159.314C177.098 158.86 177.197 158.41 177.395 157.964C177.593 157.518 177.86 157.122 178.196 156.775ZM180.599 153.774C180.599 153.383 180.494 153.146 180.284 153.061C180.074 152.977 179.786 153.043 179.42 153.261C179.06 153.475 178.775 153.75 178.565 154.084C178.355 154.418 178.25 154.785 178.25 155.183C178.25 155.532 178.358 155.754 178.574 155.849C178.796 155.933 179.078 155.874 179.42 155.67C179.762 155.467 180.044 155.187 180.266 154.831C180.488 154.476 180.599 154.124 180.599 153.774ZM179.42 156.571C179.024 156.806 178.7 157.114 178.448 157.495C178.202 157.865 178.079 158.262 178.079 158.688C178.079 159.086 178.199 159.34 178.439 159.448C178.679 159.55 179.006 159.477 179.42 159.231C179.828 158.988 180.149 158.672 180.383 158.281C180.623 157.887 180.743 157.494 180.743 157.103C180.743 156.684 180.62 156.433 180.374 156.349C180.134 156.261 179.816 156.335 179.42 156.571ZM182.703 156.493V155.592L185.727 148.744L186.97 148.005V152.917L187.807 152.419V153.456L186.97 153.954V155.546L185.961 156.146V154.554L182.703 156.493ZM186.006 149.793L183.882 154.754L186.006 153.49V149.793ZM188.495 148.847C188.495 148.337 188.621 147.864 188.873 147.428C189.131 146.981 189.461 146.638 189.863 146.399C190.265 146.16 190.592 146.112 190.844 146.255C191.102 146.388 191.231 146.709 191.231 147.219C191.231 147.728 191.102 148.207 190.844 148.654C190.592 149.097 190.265 149.438 189.863 149.677C189.461 149.916 189.131 149.966 188.873 149.826C188.621 149.683 188.495 149.356 188.495 148.847ZM193.986 144.082L190.394 153.509L189.386 154.109L192.977 144.682L193.986 144.082ZM189.863 147.122C189.485 147.346 189.296 147.763 189.296 148.37C189.296 148.985 189.485 149.179 189.863 148.954C190.043 148.847 190.181 148.692 190.277 148.488C190.379 148.274 190.43 148.01 190.43 147.695C190.43 147.088 190.241 146.897 189.863 147.122ZM192.158 150.951C192.158 150.441 192.284 149.968 192.536 149.532C192.794 149.085 193.125 148.742 193.527 148.503C193.923 148.267 194.247 148.221 194.499 148.365C194.757 148.497 194.886 148.819 194.886 149.328C194.886 149.838 194.757 150.316 194.499 150.763C194.247 151.206 193.923 151.546 193.527 151.781C193.125 152.021 192.794 152.07 192.536 151.931C192.284 151.787 192.158 151.461 192.158 150.951ZM193.518 149.231C193.14 149.456 192.95 149.872 192.95 150.48C192.95 151.087 193.14 151.278 193.518 151.054C193.896 150.829 194.085 150.412 194.085 149.805C194.085 149.197 193.896 149.006 193.518 149.231Z" fill="#31B95F"/>
<rect x="0.281288" y="0.159957" width="68.0677" height="19.4376" rx="9.71881" transform="matrix(0.859406 -0.511293 0 1 144.558 167.4)" stroke="#31B95F" stroke-width="0.654611"/>
</g>
<rect x="0.411351" y="0.233917" width="256.554" height="176.141" transform="matrix(0.859406 -0.511293 0 1 133.058 161.874)" stroke="#2A9E51" stroke-opacity="0.33" stroke-width="0.957291"/>
<path d="M129.848 477.151L216.062 427.257L302.277 477.151L216.062 527.046L129.848 477.151Z" fill="url(#paint20_linear_2199_1064)"/>
<mask id="mask2_2199_1064" style="mask-type:alpha" maskUnits="userSpaceOnUse" x="127" y="445" width="178" height="76">
<path d="M304.173 454.654C304.173 450.346 304.173 448.192 302.847 446.854C301.522 445.516 299.388 445.516 295.122 445.516H136.639C132.372 445.516 130.239 445.516 128.913 446.854C127.588 448.192 127.588 450.346 127.588 454.654V468.633L127.589 468.635L127.591 468.637C127.498 469.997 128.341 471.375 130.118 472.413L209.767 518.953C213.145 520.927 218.623 520.927 222.001 518.953L301.65 472.413C303.452 471.36 304.293 469.958 304.173 468.579V454.654Z" fill="url(#paint21_linear_2199_1064)"/>
</mask>
<g mask="url(#mask2_2199_1064)">
<path d="M127.584 449.266L216.084 500.405V632.766L127.584 581.626V449.266Z" fill="#227F41"/>
<path d="M304.184 449.266L215.684 500.405V632.766L304.184 581.626V449.266Z" fill="url(#paint22_linear_2199_1064)"/>
<path d="M127.109 459.49L215.883 510.866L304.657 459.49" stroke="#1C6B36"/>
<path d="M127.109 460.49L215.883 511.866L304.657 460.49" stroke="#27924B"/>
</g>
<g filter="url(#filter3_b_2199_1064)">
<path d="M124 448.69L215.883 395.515L307.767 448.69L215.883 501.866L124 448.69Z" fill="#2A9E51"/>
</g>
<path d="M124.866 446.69L215.883 394.016L306.901 446.69L215.883 499.365L124.866 446.69Z" fill="url(#paint23_linear_2199_1064)" fill-opacity="0.5" style="mix-blend-mode:overlay"/>
<path d="M124.866 446.69L215.883 394.016L306.901 446.69L215.883 499.365L124.866 446.69Z" stroke="url(#paint24_linear_2199_1064)"/>
<path d="M129.848 446.901L216.062 397.007L302.277 446.901L216.062 496.796L129.848 446.901Z" fill="url(#paint25_linear_2199_1064)" style="mix-blend-mode:overlay"/>
<path d="M237.768 433.991L224.625 462.194L188.718 441.548L237.768 433.991Z" fill="white"/>
<circle cx="49.5372" cy="49.5372" r="45.5372" transform="matrix(0.866025 0.5 -0.866025 0.5 216.071 397.817)" stroke="url(#paint26_linear_2199_1064)" stroke-width="8"/>
<defs>
<filter id="filter0_b_2199_1064" x="395.357" y="178.872" width="211.054" height="133.637" filterUnits="userSpaceOnUse" color-interpolation-filters="sRGB">
<feFlood flood-opacity="0" result="BackgroundImageFix"/>
<feGaussianBlur in="BackgroundImageFix" stdDeviation="6.82171"/>
<feComposite in2="SourceAlpha" operator="in" result="effect1_backgroundBlur_2199_1064"/>
<feBlend mode="normal" in="SourceGraphic" in2="effect1_backgroundBlur_2199_1064" result="shape"/>
</filter>
<filter id="filter1_b_2199_1064" x="193.658" y="280.231" width="310.755" height="196.386" filterUnits="userSpaceOnUse" color-interpolation-filters="sRGB">
<feFlood flood-opacity="0" result="BackgroundImageFix"/>
<feGaussianBlur in="BackgroundImageFix" stdDeviation="12.5845"/>
<feComposite in2="SourceAlpha" operator="in" result="effect1_backgroundBlur_2199_1064"/>
<feBlend mode="normal" in="SourceGraphic" in2="effect1_backgroundBlur_2199_1064" result="shape"/>
</filter>
<filter id="filter2_b_2199_1064" x="191.999" y="235.79" width="310.507" height="198.703" filterUnits="userSpaceOnUse" color-interpolation-filters="sRGB">
<feFlood flood-opacity="0" result="BackgroundImageFix"/>
<feGaussianBlur in="BackgroundImageFix" stdDeviation="12.5845"/>
<feComposite in2="SourceAlpha" operator="in" result="effect1_backgroundBlur_2199_1064"/>
<feBlend mode="normal" in="SourceGraphic" in2="effect1_backgroundBlur_2199_1064" result="shape"/>
</filter>
<filter id="filter3_b_2199_1064" x="110.357" y="381.872" width="211.054" height="133.637" filterUnits="userSpaceOnUse" color-interpolation-filters="sRGB">
<feFlood flood-opacity="0" result="BackgroundImageFix"/>
<feGaussianBlur in="BackgroundImageFix" stdDeviation="6.82171"/>
<feComposite in2="SourceAlpha" operator="in" result="effect1_backgroundBlur_2199_1064"/>
<feBlend mode="normal" in="SourceGraphic" in2="effect1_backgroundBlur_2199_1064" result="shape"/>
</filter>
<linearGradient id="paint0_linear_2199_1064" x1="510.008" y1="347.515" x2="510.008" y2="276.515" gradientUnits="userSpaceOnUse">
<stop stop-color="#124824"/>
<stop offset="1" stop-color="#124824" stop-opacity="0"/>
</linearGradient>
<linearGradient id="paint1_linear_2199_1064" x1="412.516" y1="340.453" x2="587.516" y2="340.453" gradientUnits="userSpaceOnUse">
<stop stop-color="#238343"/>
<stop offset="0.508571" stop-color="#31B95F"/>
<stop offset="1" stop-color="#1C6835"/>
</linearGradient>
<linearGradient id="paint2_linear_2199_1064" x1="500.186" y1="352.529" x2="589.841" y2="352.529" gradientUnits="userSpaceOnUse">
<stop stop-color="#227F41"/>
<stop offset="0.0961538" stop-color="#29994F"/>
<stop offset="1" stop-color="#29994F"/>
</linearGradient>
<linearGradient id="paint3_linear_2199_1064" x1="591.508" y1="259.015" x2="459.789" y2="187.193" gradientUnits="userSpaceOnUse">
<stop stop-color="white" stop-opacity="0"/>
<stop offset="1" stop-color="#4DD079"/>
</linearGradient>
<linearGradient id="paint4_linear_2199_1064" x1="498.508" y1="196.765" x2="462.234" y2="280.563" gradientUnits="userSpaceOnUse">
<stop stop-color="#2A9E51"/>
<stop offset="0.589141" stop-color="#5BBA7D" stop-opacity="0.67"/>
<stop offset="1" stop-color="#CBFFDF" stop-opacity="0.13"/>
</linearGradient>
<linearGradient id="paint5_linear_2199_1064" x1="501.008" y1="192.765" x2="501.008" y2="243.765" gradientUnits="userSpaceOnUse">
<stop stop-color="white" stop-opacity="0.58"/>
<stop offset="1" stop-color="#228744" stop-opacity="0"/>
</linearGradient>
<linearGradient id="paint6_linear_2199_1064" x1="39.78" y1="28.8479" x2="49.9054" y2="109.552" gradientUnits="userSpaceOnUse">
<stop stop-color="#227F41"/>
<stop offset="1" stop-color="#1C6B36" stop-opacity="0"/>
</linearGradient>
<linearGradient id="paint7_linear_2199_1064" x1="376.737" y1="467.315" x2="383.947" y2="361.165" gradientUnits="userSpaceOnUse">
<stop stop-color="#124824"/>
<stop offset="1" stop-color="#124824" stop-opacity="0"/>
</linearGradient>
<linearGradient id="paint8_linear_2199_1064" x1="350.285" y1="330.353" x2="350.285" y2="466.353" gradientUnits="userSpaceOnUse">
<stop offset="0.310959" stop-color="#074C3F"/>
<stop offset="1" stop-color="#2A9E51"/>
</linearGradient>
<linearGradient id="paint9_linear_2199_1064" x1="331.495" y1="307.853" x2="418.696" y2="409.632" gradientUnits="userSpaceOnUse">
<stop stop-color="#BBFFD1"/>
<stop offset="1" stop-color="#57A771"/>
</linearGradient>
<linearGradient id="paint10_linear_2199_1064" x1="480.754" y1="401.827" x2="258.353" y2="322.666" gradientUnits="userSpaceOnUse">
<stop stop-color="white" stop-opacity="0"/>
<stop offset="1" stop-color="#4DD079"/>
</linearGradient>
<linearGradient id="paint11_linear_2199_1064" x1="329.489" y1="303.824" x2="280.586" y2="410.239" gradientUnits="userSpaceOnUse">
<stop stop-color="#2A9E51" stop-opacity="0.4"/>
<stop offset="0.589141" stop-color="#5BBA7D" stop-opacity="0.8"/>
<stop offset="1" stop-color="#CBFFDF" stop-opacity="0.4"/>
</linearGradient>
<linearGradient id="paint12_linear_2199_1064" x1="480.754" y1="393.827" x2="258.353" y2="314.666" gradientUnits="userSpaceOnUse">
<stop stop-color="white" stop-opacity="0"/>
<stop offset="1" stop-color="#4DD079"/>
</linearGradient>
<linearGradient id="paint13_linear_2199_1064" x1="329.489" y1="295.824" x2="280.586" y2="402.239" gradientUnits="userSpaceOnUse">
<stop stop-color="#2A9E51" stop-opacity="0.4"/>
<stop offset="0.589141" stop-color="#5BBA7D" stop-opacity="0.8"/>
<stop offset="1" stop-color="#CBFFDF" stop-opacity="0.4"/>
</linearGradient>
<linearGradient id="paint14_linear_2199_1064" x1="480.754" y1="384.827" x2="258.353" y2="305.666" gradientUnits="userSpaceOnUse">
<stop stop-color="white" stop-opacity="0"/>
<stop offset="1" stop-color="#4DD079"/>
</linearGradient>
<linearGradient id="paint15_linear_2199_1064" x1="329.489" y1="286.824" x2="280.586" y2="393.239" gradientUnits="userSpaceOnUse">
<stop stop-color="#2A9E51" stop-opacity="0.4"/>
<stop offset="0.589141" stop-color="#5BBA7D" stop-opacity="0.8"/>
<stop offset="1" stop-color="#CBFFDF" stop-opacity="0.4"/>
</linearGradient>
<linearGradient id="paint16_linear_2199_1064" x1="480.754" y1="376.827" x2="258.353" y2="297.666" gradientUnits="userSpaceOnUse">
<stop stop-color="white" stop-opacity="0"/>
<stop offset="1" stop-color="#4DD079"/>
</linearGradient>
<linearGradient id="paint17_linear_2199_1064" x1="329.489" y1="278.824" x2="280.586" y2="385.239" gradientUnits="userSpaceOnUse">
<stop stop-color="#2A9E51" stop-opacity="0.4"/>
<stop offset="0.589141" stop-color="#5BBA7D" stop-opacity="0.8"/>
<stop offset="1" stop-color="#CBFFDF" stop-opacity="0.4"/>
</linearGradient>
<linearGradient id="paint18_linear_2199_1064" x1="306.783" y1="391.916" x2="385.607" y2="293.4" gradientUnits="userSpaceOnUse">
<stop stop-color="#96E3AF"/>
<stop offset="1" stop-color="#5EAD78"/>
</linearGradient>
<linearGradient id="paint19_linear_2199_1064" x1="304.387" y1="391.901" x2="382.984" y2="293.891" gradientUnits="userSpaceOnUse">
<stop stop-color="#5DAC77"/>
<stop offset="1" stop-color="#5EAD78"/>
</linearGradient>
<linearGradient id="paint20_linear_2199_1064" x1="225.008" y1="530.515" x2="225.008" y2="459.515" gradientUnits="userSpaceOnUse">
<stop stop-color="#124824"/>
<stop offset="1" stop-color="#124824" stop-opacity="0"/>
</linearGradient>
<linearGradient id="paint21_linear_2199_1064" x1="127.516" y1="543.453" x2="302.516" y2="543.453" gradientUnits="userSpaceOnUse">
<stop stop-color="#238343"/>
<stop offset="0.508571" stop-color="#31B95F"/>
<stop offset="1" stop-color="#1C6835"/>
</linearGradient>
<linearGradient id="paint22_linear_2199_1064" x1="215.186" y1="555.529" x2="304.841" y2="555.529" gradientUnits="userSpaceOnUse">
<stop stop-color="#227F41"/>
<stop offset="0.0961538" stop-color="#29994F"/>
<stop offset="1" stop-color="#29994F"/>
</linearGradient>
<linearGradient id="paint23_linear_2199_1064" x1="306.508" y1="462.015" x2="174.789" y2="390.193" gradientUnits="userSpaceOnUse">
<stop stop-color="white" stop-opacity="0"/>
<stop offset="1" stop-color="#4DD079"/>
</linearGradient>
<linearGradient id="paint24_linear_2199_1064" x1="213.508" y1="399.765" x2="177.234" y2="483.563" gradientUnits="userSpaceOnUse">
<stop stop-color="#2A9E51"/>
<stop offset="0.589141" stop-color="#5BBA7D" stop-opacity="0.67"/>
<stop offset="1" stop-color="#CBFFDF" stop-opacity="0.13"/>
</linearGradient>
<linearGradient id="paint25_linear_2199_1064" x1="216.008" y1="395.765" x2="216.008" y2="446.765" gradientUnits="userSpaceOnUse">
<stop stop-color="white" stop-opacity="0.58"/>
<stop offset="1" stop-color="#228744" stop-opacity="0"/>
</linearGradient>
<linearGradient id="paint26_linear_2199_1064" x1="39.78" y1="28.8479" x2="49.9054" y2="109.552" gradientUnits="userSpaceOnUse">
<stop stop-color="#227F41"/>
<stop offset="1" stop-color="#1C6B36" stop-opacity="0"/>
</linearGradient>
<clipPath id="clip0_2199_1064">
<rect width="257.511" height="177.099" transform="matrix(0.859406 -0.511293 0 1 133 161.664)" fill="white"/>
</clipPath>
</defs>
</svg>
