<svg width="461" height="389" viewBox="0 0 461 389" fill="none" xmlns="http://www.w3.org/2000/svg">
<path d="M63 258.959L32.6847 276.783C26.5438 280.394 26.6435 286.205 32.9069 289.745L46.9998 297.709M400.5 204.459L448.848 231.668C455.176 235.229 455.238 241.099 448.986 244.705L413 265.459M320 318.459L209.828 383.074C205.457 385.637 198.325 385.67 193.884 383.148L135 349.709" stroke="#124944" stroke-linejoin="round" stroke-dasharray="4 4"/>
<path d="M408.971 267.892L408.971 263.615C408.971 263.326 408.566 263.093 408.066 263.093C407.567 263.093 407.162 263.326 407.162 263.615L407.162 268.414C407.162 268.702 407.567 268.936 408.066 268.936L416.379 268.936C416.878 268.936 417.283 268.702 417.283 268.414C417.283 268.125 416.878 267.892 416.379 267.892L408.971 267.892Z" fill="#124944"/>
<rect width="300" height="195.843" rx="13.0388" transform="matrix(0.865509 -0.500893 0.865509 0.500893 18.7871 278.544)" fill="#0C2F17" fill-opacity="0.14"/>
<g filter="url(#filter0_b_2199_844)">
<path fill-rule="evenodd" clip-rule="evenodd" d="M25.4085 222.171C25.4098 222.171 25.4108 222.172 25.4107 222.173C25.2394 224.659 26.7934 227.177 30.0724 229.075L177.006 314.109C183.239 317.716 193.344 317.716 199.576 314.109L436.659 176.903C439.858 175.052 441.415 172.609 441.33 170.183C441.33 170.176 441.335 170.171 441.341 170.171V170.171C441.347 170.171 441.352 170.166 441.352 170.16V159.44C441.352 157.225 441.352 156.117 441.143 155.201C440.43 152.073 437.988 149.631 434.86 148.918C433.943 148.709 432.836 148.709 430.621 148.709H414.994C412.765 148.709 411.651 148.709 410.587 148.423C409.524 148.138 408.559 147.579 406.63 146.463L289.725 78.807C283.493 75.2 273.388 75.2 267.155 78.807L150.25 146.463C148.321 147.579 147.356 148.138 146.293 148.423C145.229 148.709 144.115 148.709 141.886 148.709H126.89C124.148 148.709 122.777 148.709 121.657 149.028C118.877 149.819 116.704 151.992 115.913 154.771C115.594 155.892 115.594 157.263 115.594 160.005V160.005C115.594 161.654 115.594 162.478 115.452 163.238C115.103 165.107 114.126 166.801 112.683 168.04C112.096 168.543 111.383 168.956 109.956 169.782L57.148 200.343C55.2191 201.46 54.2547 202.018 53.1911 202.303C52.1275 202.589 51.0132 202.589 48.7846 202.589H35.1975C33.8575 202.589 33.1875 202.589 32.6253 202.666C28.9111 203.173 25.9904 206.094 25.4832 209.808C25.4064 210.37 25.4064 211.04 25.4064 212.38V222.169C25.4064 222.17 25.4074 222.171 25.4085 222.171V222.171Z" fill="url(#paint0_linear_2199_844)"/>
</g>
<g filter="url(#filter1_b_2199_844)">
<path d="M41.1561 220.461C30.6186 214.363 25.3499 211.313 25.3499 207.524C25.3499 203.735 30.6186 200.686 41.1561 194.588L262.489 66.4969C270.016 62.141 273.779 59.963 278.456 59.963C283.132 59.963 286.895 62.141 294.422 66.4969L425.606 142.416C436.144 148.515 441.412 151.564 441.412 155.353C441.412 159.142 436.144 162.191 425.606 168.289L204.273 296.38C196.747 300.736 192.983 302.914 188.307 302.914C183.63 302.914 179.867 300.736 172.34 296.38L41.1561 220.461Z" fill="#2A9E51"/>
<path d="M41.1561 220.461C30.6186 214.363 25.3499 211.313 25.3499 207.524C25.3499 203.735 30.6186 200.686 41.1561 194.588L262.489 66.4969C270.016 62.141 273.779 59.963 278.456 59.963C283.132 59.963 286.895 62.141 294.422 66.4969L425.606 142.416C436.144 148.515 441.412 151.564 441.412 155.353C441.412 159.142 436.144 162.191 425.606 168.289L204.273 296.38C196.747 300.736 192.983 302.914 188.307 302.914C183.63 302.914 179.867 300.736 172.34 296.38L41.1561 220.461Z" stroke="url(#paint1_linear_2199_844)"/>
</g>
<path d="M30.4122 197.617L270.905 58.4376C275.075 56.0242 281.836 56.0242 286.006 58.4376L436.35 145.445C442.284 148.879 442.284 154.447 436.35 157.881L195.857 297.06C191.687 299.474 184.926 299.474 180.756 297.06L30.4122 210.053C24.4785 206.619 24.4785 201.051 30.4122 197.617Z" fill="url(#paint2_linear_2199_844)" fill-opacity="0.5" style="mix-blend-mode:overlay"/>
<path d="M30.4122 197.617L270.905 58.4376C275.075 56.0242 281.836 56.0242 286.006 58.4376L436.35 145.445C442.284 148.879 442.284 154.447 436.35 157.881L195.857 297.06C191.687 299.474 184.926 299.474 180.756 297.06L30.4122 210.053C24.4785 206.619 24.4785 201.051 30.4122 197.617Z" stroke="url(#paint3_linear_2199_844)"/>
<path d="M40.7665 210.692C34.5938 207.12 34.5938 201.328 40.7665 197.756L270.888 64.5784C275.297 62.0267 282.446 62.0268 286.855 64.5784L426.741 145.534C432.914 149.106 432.914 154.898 426.741 158.471L196.619 291.648C192.21 294.2 185.062 294.2 180.653 291.648L40.7665 210.692Z" fill="url(#paint4_linear_2199_844)" style="mix-blend-mode:overlay"/>
<path d="M435 172.34C435 170.521 433.032 169.382 431.454 170.289L201.999 302.276C201.265 302.698 200.813 303.48 200.813 304.327V304.327C200.813 306.147 202.781 307.285 204.358 306.378L433.814 174.391C434.548 173.969 435 173.187 435 172.34V172.34Z" fill="#0C2F17"/>
<path d="M277.975 262.928C277.975 261.108 276.009 259.967 274.429 260.87L202.005 302.277C201.266 302.699 200.811 303.484 200.811 304.334V304.334C200.811 306.153 202.777 307.294 204.357 306.391L276.781 264.985C277.519 264.563 277.975 263.778 277.975 262.928V262.928Z" fill="#104321" fill-opacity="0.65"/>
<path d="M32.3105 224.664C32.3105 222.844 34.2775 221.705 35.8561 222.61L173.958 301.776C174.694 302.198 175.148 302.982 175.148 303.831V303.831C175.148 305.65 173.181 306.79 171.603 305.885L33.5008 226.718C32.7646 226.296 32.3105 225.513 32.3105 224.664V224.664Z" fill="#145129" fill-opacity="0.65"/>
<path d="M32.2363 224.677C32.2363 222.858 34.2022 221.717 35.7818 222.62L108.206 264.027C108.944 264.449 109.4 265.233 109.4 266.084V266.084C109.4 267.903 107.434 269.044 105.854 268.141L33.4298 226.734C32.6918 226.312 32.2363 225.527 32.2363 224.677V224.677Z" fill="#104321" fill-opacity="0.41"/>
<path d="M188.682 316.818L188.682 302.943" stroke="#1C6B36"/>
<path d="M187.994 316.693L187.994 303.255" stroke="#27924B"/>
<g clip-path="url(#clip0_2199_844)">
<line x1="0.475561" y1="-0.475561" x2="187.562" y2="-0.475561" transform="matrix(0.868034 0.496505 -0.868034 0.496505 17.165 208.056)" stroke="#17673E" stroke-opacity="0.44" stroke-width="0.951122" stroke-linecap="round" stroke-dasharray="0.95 3.8"/>
<line x1="0.475561" y1="-0.475561" x2="187.972" y2="-0.475561" transform="matrix(0.868034 0.496505 -0.868034 0.496505 45.5146 191.841)" stroke="#17673E" stroke-opacity="0.44" stroke-width="0.951122" stroke-linecap="round" stroke-dasharray="0.95 3.8"/>
<line x1="0.475561" y1="-0.475561" x2="187.152" y2="-0.475561" transform="matrix(0.868034 0.496505 -0.868034 0.496505 74.2979 175.377)" stroke="#17673E" stroke-opacity="0.44" stroke-width="0.951122" stroke-linecap="round" stroke-dasharray="0.95 3.8"/>
<line x1="0.475561" y1="-0.475561" x2="187.972" y2="-0.475561" transform="matrix(0.868034 0.496505 -0.868034 0.496505 103.516 158.665)" stroke="#17673E" stroke-opacity="0.44" stroke-width="0.951122" stroke-linecap="round" stroke-dasharray="0.95 3.8"/>
<line x1="0.475561" y1="-0.475561" x2="187.972" y2="-0.475561" transform="matrix(0.868034 0.496505 -0.868034 0.496505 132.733 141.953)" stroke="#17673E" stroke-opacity="0.44" stroke-width="0.951122" stroke-linecap="round" stroke-dasharray="0.95 3.8"/>
<line x1="0.475561" y1="-0.475561" x2="187.972" y2="-0.475561" transform="matrix(0.868034 0.496505 -0.868034 0.496505 161.95 125.241)" stroke="#17673E" stroke-opacity="0.44" stroke-width="0.951122" stroke-linecap="round" stroke-dasharray="0.95 3.8"/>
<line x1="0.475561" y1="-0.475561" x2="187.972" y2="-0.475561" transform="matrix(0.868034 0.496505 -0.868034 0.496505 191.168 108.529)" stroke="#17673E" stroke-opacity="0.44" stroke-width="0.951122" stroke-linecap="round" stroke-dasharray="0.95 3.8"/>
<line x1="0.475561" y1="-0.475561" x2="187.562" y2="-0.475561" transform="matrix(0.868034 0.496505 -0.868034 0.496505 220.385 91.8168)" stroke="#17673E" stroke-opacity="0.44" stroke-width="0.951122" stroke-linecap="round" stroke-dasharray="0.95 3.8"/>
<line x1="0.475561" y1="-0.475561" x2="187.152" y2="-0.475561" transform="matrix(0.868034 0.496505 -0.868034 0.496505 249.603 75.1047)" stroke="#17673E" stroke-opacity="0.44" stroke-width="0.951122" stroke-linecap="round" stroke-dasharray="0.95 3.8"/>
<line x1="0.475561" y1="-0.475561" x2="187.562" y2="-0.475561" transform="matrix(0.868034 0.496505 -0.868034 0.496505 278.82 58.3927)" stroke="#17673E" stroke-opacity="0.44" stroke-width="0.951122" stroke-linecap="round" stroke-dasharray="0.95 3.8"/>
<path d="M145.906 262.155L148.136 260.395C150.366 258.635 154.826 255.115 156.429 249.961C158.032 244.808 156.779 238.02 157.271 232.231C157.764 226.442 160.001 221.651 165.785 218.888C171.569 216.126 180.899 215.392 185.112 211.73C189.324 208.069 188.418 201.48 192.966 198.011C197.515 194.542 207.517 194.192 209.467 189.237C211.416 184.281 205.313 174.72 214.751 174.047C224.188 173.374 249.165 181.59 252.873 177.64C256.58 173.69 239.019 157.574 241.784 153.085C244.549 148.595 267.639 155.732 277.595 155.356C287.55 154.979 284.37 147.09 288.873 143.595C293.376 140.1 305.563 140.999 313.145 139.266C320.727 137.532 323.705 133.164 325.194 130.981L326.684 128.797" stroke="#4DD079" stroke-opacity="0.61" stroke-width="1.63867"/>
<g filter="url(#filter2_d_2199_844)">
<path fill-rule="evenodd" clip-rule="evenodd" d="M249.386 134.159C249.126 134.837 249.162 135.849 249.894 137.36C251.391 140.451 255.505 145.102 260.132 150.127C260.773 150.823 261.423 151.525 262.075 152.229C266.05 156.523 270.093 160.892 272.633 164.408C274.117 166.462 275.137 168.29 275.574 169.839C276 171.35 275.935 172.814 274.782 173.961C273.516 175.22 271.29 175.774 268.741 175.823C266.29 175.87 263.31 175.468 259.871 174.719C254.286 173.502 246.839 171.212 239.57 168.976C237.942 168.476 236.323 167.978 234.735 167.495C230.342 166.16 226.169 164.934 222.596 164.04C218.913 163.119 216.235 162.65 214.692 162.643C214.027 162.639 213.79 162.727 213.723 162.756C213.654 162.786 213.502 162.871 213.377 163.137C213.091 163.746 213.183 164.771 213.652 166.215C213.987 167.245 214.46 168.345 214.951 169.488C215.129 169.903 215.31 170.323 215.487 170.748C216.131 172.29 216.735 173.899 216.835 175.274C217.042 178.112 215.093 179.815 213.477 181.228C213.431 181.268 213.385 181.308 213.34 181.348C211.776 182.717 210.557 183.849 210.834 185.941C210.984 187.073 211.576 188.512 212.379 190.146C212.761 190.922 213.18 191.721 213.605 192.533L213.654 192.627C214.094 193.467 214.54 194.32 214.944 195.151C215.742 196.792 216.428 198.445 216.575 199.851C216.712 201.165 216.437 202.789 214.22 203.73C213.142 204.187 211.854 204.365 210.627 204.411C209.392 204.457 208.042 204.377 206.661 204.227C203.902 203.926 200.654 203.302 197.266 202.554C193.977 201.828 190.444 200.959 186.961 200.102L186.592 200.011C182.969 199.12 179.411 198.249 176.146 197.54C169.556 196.11 164.421 195.405 160.919 195.471C159.197 195.503 158.092 195.718 157.405 196.003C156.779 196.262 156.284 196.668 156.069 197.385C155.838 198.156 155.946 199.244 156.422 200.648C156.891 202.031 157.681 203.621 158.677 205.353C159.99 207.637 161.607 210.079 163.245 212.554C164.109 213.86 164.979 215.174 165.814 216.479C168.176 220.173 170.281 223.828 170.718 226.619C170.934 228.002 170.785 229.399 169.701 230.508C168.497 231.74 166.395 232.376 163.757 232.438C161.341 232.495 158.327 232.077 155.356 231.557C153.111 231.164 150.685 230.673 148.316 230.194C147.494 230.028 146.678 229.863 145.88 229.704C142.713 229.074 139.804 228.536 137.439 228.276C136.258 228.146 135.32 228.098 134.616 228.121C133.895 228.145 133.644 228.236 133.598 228.257C133.587 228.262 133.447 228.325 133.356 228.608C133.259 228.908 133.255 229.353 133.407 229.966C133.713 231.194 134.564 232.792 135.74 234.634C136.687 236.117 137.801 237.695 138.933 239.298C139.198 239.673 139.464 240.049 139.729 240.426C141.113 242.395 142.469 244.376 143.442 246.149C145.403 249.722 145.812 252.455 145.525 254.563C145.237 256.678 144.256 258.093 143.647 258.972L142.474 260.663C141.998 261.348 140.641 261.684 139.442 261.412C138.243 261.14 137.657 260.363 138.132 259.678L139.303 257.99C139.864 257.181 140.636 256.065 140.869 254.356C141.103 252.637 140.796 250.247 138.987 246.949C138.074 245.287 136.782 243.395 135.396 241.423C135.138 241.056 134.877 240.687 134.616 240.317C133.482 238.711 132.329 237.08 131.353 235.55C130.159 233.68 129.162 231.863 128.784 230.343C128.594 229.582 128.539 228.819 128.763 228.124C128.991 227.416 129.541 226.694 130.677 226.173C131.775 225.669 133.12 225.495 134.346 225.454C135.59 225.413 136.951 225.502 138.322 225.652C141.059 225.954 144.261 226.554 147.414 227.181C148.267 227.351 149.116 227.523 149.958 227.693C152.298 228.166 154.581 228.628 156.723 229.002C159.69 229.522 162.023 229.805 163.565 229.769C164.885 229.738 165.351 229.485 165.624 229.205C166.018 228.802 166.255 228.063 166.066 226.857C165.692 224.47 163.819 221.136 161.428 217.397C160.634 216.156 159.785 214.873 158.931 213.582C157.268 211.069 155.584 208.523 154.241 206.188C153.217 204.407 152.36 202.697 151.837 201.157C151.321 199.636 151.094 198.175 151.466 196.934C151.854 195.639 152.902 194.57 154.665 193.84C156.368 193.134 158.499 192.843 160.767 192.801C165.247 192.717 171.112 193.59 177.803 195.042C181.179 195.775 184.831 196.67 188.436 197.557L188.769 197.639C192.281 198.503 195.743 199.354 198.948 200.062C202.273 200.796 205.202 201.348 207.535 201.603C208.699 201.73 209.623 201.771 210.321 201.745C211.028 201.719 211.332 201.629 211.437 201.584C211.586 201.521 212.037 201.204 211.913 200.011C211.798 198.91 211.235 197.492 210.445 195.867C210.055 195.065 209.622 194.237 209.181 193.394L209.127 193.292C208.705 192.487 208.276 191.668 207.883 190.869C207.073 189.222 206.365 187.561 206.177 186.143C205.779 183.134 207.737 181.369 209.43 179.887L209.482 179.841C211.073 178.449 212.313 177.363 212.169 175.385C212.09 174.3 211.593 172.923 210.944 171.368C210.784 170.985 210.615 170.592 210.444 170.193C209.943 169.026 209.422 167.815 209.061 166.703C208.588 165.251 208.28 163.69 208.868 162.442C209.18 161.779 209.784 161.118 210.88 160.637C211.98 160.154 213.319 159.964 214.731 159.971C217.344 159.984 220.828 160.682 224.467 161.592C228.217 162.53 232.525 163.798 236.927 165.136C238.587 165.641 240.257 166.154 241.918 166.665C249.178 168.896 256.262 171.074 261.534 172.223C264.752 172.924 267.048 173.183 268.584 173.153C270.022 173.126 270.495 172.866 270.733 172.629C271.085 172.279 271.33 171.563 270.963 170.264C270.608 169.003 269.734 167.39 268.316 165.428C265.87 162.041 261.951 157.806 257.964 153.497C257.309 152.79 256.653 152.08 256 151.372C251.453 146.434 247.053 141.502 245.393 138.073C244.546 136.323 244.343 134.841 244.824 133.586C245.321 132.289 246.513 131.334 248.096 130.647C249.614 129.988 251.429 129.602 253.153 129.329C254.419 129.129 255.792 128.968 257.068 128.819C257.507 128.767 257.935 128.717 258.344 128.667C264.932 127.861 270.806 126.627 276.543 125.248C282.436 123.831 287.117 122.476 289.221 119.753C290.308 118.346 290.79 116.473 290.937 114.552C291.081 112.653 290.891 110.835 290.758 109.578C290.758 109.577 290.758 109.575 290.758 109.573L290.494 107.07C290.416 106.334 291.397 105.701 292.684 105.656C293.971 105.612 295.078 106.173 295.155 106.909L295.42 109.417C295.42 109.419 295.42 109.421 295.421 109.423L295.422 109.433C295.554 110.685 295.758 112.622 295.602 114.668C295.448 116.699 294.932 118.969 293.493 120.832C290.545 124.648 284.064 126.337 278.353 127.71C272.485 129.121 266.311 130.425 259.32 131.28C258.819 131.341 258.334 131.398 257.862 131.453C256.637 131.596 255.499 131.73 254.398 131.904C252.895 132.142 251.744 132.417 250.919 132.775C250.159 133.105 249.63 133.523 249.386 134.159Z" fill="#074C3F"/>
</g>
<circle cx="4.91601" cy="4.91601" r="4.09668" transform="matrix(0.868034 -0.496505 0.868034 0.496505 101.1 212.931)" stroke="white" stroke-width="1.63867"/>
<circle cx="4.91601" cy="4.91601" r="4.09668" transform="matrix(0.868034 -0.496505 0.868034 0.496505 169.02 152.521)" stroke="white" stroke-width="1.63867"/>
<circle cx="4.91601" cy="4.91601" r="4.09668" transform="matrix(0.868034 -0.496505 0.868034 0.496505 329.042 141.537)" stroke="white" stroke-width="1.63867"/>
</g>
<path d="M274.545 77.1902L274.111 76.9471L275.095 76.3966L278.881 78.5138L278.4 78.7832L275.048 76.9091L274.545 77.1902ZM279.962 77.9448C279.871 77.9956 279.763 78.0209 279.637 78.0209C279.511 78.0209 279.403 77.9956 279.312 77.9448C279.222 77.8941 279.176 77.8335 279.176 77.7633C279.176 77.693 279.222 77.6324 279.312 77.5817C279.4 77.5329 279.504 77.5095 279.627 77.5114C279.752 77.5114 279.86 77.5368 279.951 77.5875C280.042 77.6383 280.087 77.6988 280.087 77.7691C280.091 77.8374 280.049 77.896 279.962 77.9448ZM277.322 75.6374L276.887 75.3943L277.872 74.8438L281.658 76.961L281.176 77.2304L277.825 75.3562L277.322 75.6374ZM282.037 76.3217C282.124 75.8746 282.18 75.5173 282.205 75.2499C282.225 74.9805 282.198 74.7286 282.121 74.4944C282.044 74.2562 281.885 74.0697 281.644 73.935C281.417 73.8081 281.183 73.7398 280.942 73.7301C280.702 73.7164 280.459 73.7779 280.215 73.9145C279.977 74.0473 279.867 74.1927 279.885 74.3509C279.902 74.5051 280.029 74.6544 280.267 74.7989L279.806 75.0566C279.429 74.8302 279.246 74.5949 279.256 74.3509C279.267 74.1068 279.448 73.8862 279.801 73.6891C280.16 73.488 280.544 73.3845 280.953 73.3786C281.365 73.3708 281.745 73.4645 282.095 73.6598C282.384 73.8218 282.58 74.0287 282.681 74.2806C282.782 74.5285 282.828 74.7726 282.817 75.0127C282.803 75.2509 282.763 75.5427 282.697 75.8883L284.498 74.8809L284.896 75.1035L282.377 76.512L282.037 76.3217ZM284.211 73.3312C283.939 73.3976 283.677 73.4191 283.426 73.3956C283.174 73.3722 282.944 73.3019 282.734 73.1848C282.546 73.0794 282.424 72.9583 282.368 72.8217C282.309 72.6831 282.328 72.5376 282.425 72.3853C282.523 72.2292 282.705 72.0769 282.97 71.9285C283.235 71.7801 283.506 71.6796 283.782 71.6269C284.058 71.5703 284.319 71.5586 284.567 71.5918C284.815 71.621 285.033 71.6884 285.222 71.7938C285.424 71.907 285.548 72.0369 285.594 72.1833C285.636 72.3278 285.599 72.4732 285.484 72.6196C285.767 72.5357 286.055 72.5054 286.348 72.5288C286.641 72.5484 286.905 72.6235 287.139 72.7543C287.366 72.8812 287.509 73.0237 287.568 73.1819C287.624 73.3381 287.596 73.5001 287.484 73.668C287.373 73.832 287.184 73.9882 286.919 74.1365C286.653 74.2849 286.374 74.3903 286.081 74.4528C285.788 74.5114 285.501 74.525 285.222 74.4938C284.939 74.4606 284.684 74.3806 284.457 74.2537C284.223 74.1229 284.086 73.9755 284.044 73.8115C284.002 73.6475 284.058 73.4874 284.211 73.3312ZM284.819 72.0837C284.606 71.9646 284.372 71.9119 284.117 71.9256C283.862 71.9393 283.613 72.0144 283.368 72.1511C283.127 72.2858 282.995 72.4244 282.97 72.5669C282.946 72.7094 283.042 72.8412 283.258 72.9622C283.454 73.0716 283.682 73.1194 283.944 73.1057C284.21 73.0901 284.457 73.0179 284.688 72.889C284.922 72.7582 285.051 72.6196 285.075 72.4732C285.1 72.3229 285.014 72.193 284.819 72.0837ZM285.054 73.094C284.796 73.2385 284.646 73.3908 284.604 73.5508C284.559 73.709 284.656 73.8554 284.897 73.9901C285.121 74.1151 285.379 74.1717 285.672 74.16C285.969 74.1463 286.252 74.0643 286.521 73.914C286.79 73.7636 286.934 73.6065 286.955 73.4425C286.976 73.2785 286.875 73.134 286.652 73.0091C286.418 72.8783 286.159 72.8236 285.877 72.8451C285.59 72.8646 285.316 72.9476 285.054 73.094ZM286.86 71.8909C286.26 71.5551 285.89 71.2388 285.75 70.9421C285.607 70.6434 285.78 70.3574 286.269 70.084C286.754 69.8127 287.264 69.717 287.798 69.7971C288.328 69.8752 288.894 70.0821 289.494 70.4179C290.105 70.7595 290.483 71.0797 290.626 71.3784C290.769 71.6771 290.598 71.9621 290.112 72.2335C289.624 72.5068 289.112 72.6034 288.578 72.5234C288.044 72.4434 287.471 72.2325 286.86 71.8909ZM289.023 70.6814C288.719 70.5116 288.442 70.3798 288.191 70.2861C287.939 70.1885 287.686 70.1387 287.431 70.1368C287.18 70.1328 286.937 70.1963 286.703 70.3271C286.466 70.4599 286.349 70.5975 286.352 70.74C286.359 70.8806 286.448 71.0221 286.619 71.1646C286.791 71.3032 287.028 71.4575 287.332 71.6273C287.646 71.803 287.929 71.9397 288.18 72.0373C288.435 72.1329 288.688 72.1827 288.939 72.1866C289.194 72.1886 289.44 72.1232 289.678 71.9904C289.912 71.8596 290.025 71.7239 290.018 71.5834C290.015 71.4409 289.926 71.2993 289.751 71.1588C289.58 71.0162 289.337 70.8571 289.023 70.6814Z" fill="white"/>
<path d="M294.358 88.2693L293.923 88.0262L294.908 87.4757L298.694 89.5929L298.212 89.8623L294.86 87.9882L294.358 88.2693ZM299.774 89.0239C299.683 89.0747 299.575 89.1001 299.45 89.1001C299.324 89.1001 299.216 89.0747 299.125 89.0239C299.034 88.9732 298.989 88.9126 298.989 88.8424C298.989 88.7721 299.034 88.7116 299.125 88.6608C299.212 88.612 299.317 88.5886 299.439 88.5905C299.565 88.5905 299.673 88.6159 299.764 88.6666C299.855 88.7174 299.9 88.7779 299.9 88.8482C299.903 88.9165 299.862 88.9751 299.774 89.0239ZM297.135 86.7165L296.7 86.4734L297.685 85.9229L301.471 88.0401L300.989 88.3095L297.637 86.4353L297.135 86.7165ZM301.849 87.4008C301.937 86.9537 301.993 86.5964 302.017 86.329C302.038 86.0596 302.01 85.8077 301.933 85.5735C301.856 85.3353 301.698 85.1488 301.457 85.0141C301.23 84.8872 300.996 84.8189 300.755 84.8092C300.514 84.7955 300.271 84.857 300.027 84.9936C299.79 85.1264 299.68 85.2718 299.697 85.43C299.715 85.5842 299.842 85.7335 300.079 85.878L299.619 86.1357C299.241 85.9093 299.058 85.674 299.069 85.43C299.079 85.1859 299.261 84.9653 299.613 84.7682C299.973 84.5671 300.357 84.4636 300.765 84.4577C301.177 84.4499 301.558 84.5436 301.907 84.7389C302.197 84.9009 302.392 85.1078 302.494 85.3597C302.595 85.6076 302.64 85.8517 302.63 86.0918C302.616 86.33 302.576 86.6218 302.509 86.9674L304.311 85.96L304.709 86.1826L302.19 87.5911L301.849 87.4008ZM304.343 85.4909L303.982 85.2888L303.275 82.8378L303.846 82.5186L306.338 83.9125L306.862 83.6197L307.276 83.851L306.752 84.1438L307.595 84.6153L307.124 84.8789L306.281 84.4074L304.343 85.4909ZM303.893 83.0486L304.479 84.9521L305.888 84.1643L303.893 83.0486ZM306.663 82.9757C306.062 82.6399 305.692 82.3236 305.552 82.0269C305.409 81.7282 305.582 81.4422 306.071 81.1689C306.556 80.8975 307.066 80.8018 307.6 80.8819C308.131 80.96 308.696 81.1669 309.297 81.5027C309.908 81.8443 310.285 82.1645 310.428 82.4632C310.571 82.7619 310.4 83.0469 309.915 83.3183C309.426 83.5916 308.914 83.6883 308.38 83.6082C307.846 83.5282 307.274 83.3173 306.663 82.9757ZM308.825 81.7663C308.522 81.5964 308.244 81.4646 307.993 81.3709C307.741 81.2733 307.488 81.2235 307.233 81.2216C306.982 81.2177 306.739 81.2811 306.506 81.4119C306.268 81.5447 306.151 81.6823 306.155 81.8248C306.162 81.9654 306.251 82.1069 306.422 82.2494C306.593 82.3881 306.83 82.5423 307.134 82.7121C307.448 82.8878 307.731 83.0245 307.982 83.1221C308.237 83.2178 308.49 83.2675 308.742 83.2714C308.997 83.2734 309.243 83.208 309.48 83.0752C309.714 82.9444 309.827 82.8088 309.82 82.6682C309.817 82.5257 309.728 82.3841 309.553 82.2436C309.382 82.1011 309.14 81.942 308.825 81.7663Z" fill="white"/>
<path d="M314.171 99.3484L313.736 99.1053L314.721 98.5548L318.507 100.672L318.025 100.941L314.673 99.0673L314.171 99.3484ZM319.587 100.103C319.496 100.154 319.388 100.179 319.263 100.179C319.137 100.179 319.029 100.154 318.938 100.103C318.847 100.052 318.802 99.9917 318.802 99.9215C318.802 99.8512 318.847 99.7907 318.938 99.7399C319.025 99.6911 319.13 99.6677 319.252 99.6696C319.378 99.6696 319.486 99.695 319.577 99.7457C319.668 99.7965 319.713 99.857 319.713 99.9273C319.716 99.9956 319.674 100.054 319.587 100.103ZM316.948 97.7956L316.513 97.5525L317.498 97.002L321.284 99.1192L320.802 99.3886L317.45 97.5144L316.948 97.7956ZM321.662 98.4799C321.75 98.0328 321.806 97.6756 321.83 97.4081C321.851 97.1387 321.823 96.8868 321.746 96.6526C321.669 96.4144 321.511 96.2279 321.27 96.0932C321.043 95.9663 320.809 95.898 320.568 95.8883C320.327 95.8746 320.084 95.9361 319.84 96.0727C319.603 96.2055 319.493 96.3509 319.51 96.5091C319.528 96.6633 319.655 96.8127 319.892 96.9571L319.432 97.2148C319.054 96.9884 318.871 96.7531 318.882 96.5091C318.892 96.265 319.074 96.0444 319.426 95.8473C319.786 95.6462 320.17 95.5427 320.578 95.5368C320.99 95.529 321.371 95.6227 321.72 95.818C322.01 95.98 322.205 96.187 322.307 96.4388C322.408 96.6867 322.453 96.9308 322.443 97.1709C322.429 97.4091 322.389 97.7009 322.322 98.0465L324.124 97.0391L324.522 97.2617L322.003 98.6702L321.662 98.4799ZM324.675 96.7955C324.762 96.3484 324.818 95.9912 324.842 95.7237C324.863 95.4543 324.835 95.2024 324.758 94.9682C324.682 94.73 324.523 94.5436 324.282 94.4088C324.055 94.2819 323.821 94.2136 323.58 94.2039C323.339 94.1902 323.097 94.2517 322.852 94.3883C322.615 94.5211 322.505 94.6665 322.522 94.8247C322.54 94.9789 322.667 95.1283 322.905 95.2727L322.444 95.5304C322.067 95.304 321.883 95.0687 321.894 94.8247C321.904 94.5806 322.086 94.36 322.439 94.1629C322.798 93.9618 323.182 93.8583 323.591 93.8524C324.003 93.8446 324.383 93.9383 324.732 94.1336C325.022 94.2956 325.218 94.5026 325.319 94.7544C325.42 95.0023 325.465 95.2464 325.455 95.4865C325.441 95.7247 325.401 96.0165 325.334 96.3621L327.136 95.3547L327.534 95.5773L325.015 96.9858L324.675 96.7955ZM326.194 94.2121C325.594 93.8763 325.224 93.56 325.084 93.2633C324.941 92.9646 325.114 92.6786 325.603 92.4053C326.088 92.1339 326.598 92.0382 327.132 92.1183C327.662 92.1964 328.228 92.4033 328.828 92.7391C329.439 93.0807 329.816 93.4009 329.96 93.6996C330.103 93.9983 329.932 94.2833 329.446 94.5547C328.958 94.828 328.446 94.9246 327.912 94.8446C327.378 94.7646 326.805 94.5537 326.194 94.2121ZM328.357 93.0026C328.053 92.8328 327.776 92.701 327.525 92.6073C327.273 92.5097 327.02 92.4599 326.765 92.458C326.514 92.4541 326.271 92.5175 326.037 92.6483C325.8 92.7811 325.683 92.9187 325.686 93.0612C325.693 93.2018 325.782 93.3433 325.953 93.4858C326.125 93.6244 326.362 93.7787 326.666 93.9485C326.98 94.1242 327.263 94.2609 327.514 94.3585C327.769 94.4542 328.022 94.5039 328.273 94.5078C328.528 94.5098 328.774 94.4444 329.012 94.3116C329.246 94.1808 329.359 94.0452 329.352 93.9046C329.349 93.7621 329.26 93.6205 329.085 93.48C328.914 93.3375 328.671 93.1783 328.357 93.0026Z" fill="white"/>
<path d="M333.983 110.427L333.549 110.184L334.533 109.634L338.319 111.751L337.837 112.02L334.486 110.146L333.983 110.427ZM339.4 111.182C339.309 111.233 339.201 111.258 339.075 111.258C338.949 111.258 338.841 111.233 338.75 111.182C338.66 111.131 338.614 111.071 338.614 111C338.614 110.93 338.66 110.87 338.75 110.819C338.838 110.77 338.942 110.747 339.065 110.749C339.19 110.749 339.298 110.774 339.389 110.825C339.48 110.876 339.525 110.936 339.525 111.006C339.529 111.075 339.487 111.133 339.4 111.182ZM336.76 108.875L336.325 108.632L337.31 108.081L341.096 110.198L340.614 110.468L337.263 108.593L336.76 108.875ZM341.475 109.559C341.562 109.112 341.618 108.755 341.643 108.487C341.663 108.218 341.636 107.966 341.559 107.732C341.482 107.493 341.323 107.307 341.082 107.172C340.855 107.045 340.621 106.977 340.38 106.967C340.14 106.954 339.897 107.015 339.653 107.152C339.415 107.285 339.305 107.43 339.323 107.588C339.34 107.742 339.467 107.892 339.705 108.036L339.244 108.294C338.867 108.067 338.684 107.832 338.694 107.588C338.705 107.344 338.886 107.123 339.239 106.926C339.598 106.725 339.982 106.622 340.391 106.616C340.803 106.608 341.183 106.702 341.533 106.897C341.822 107.059 342.018 107.266 342.119 107.518C342.22 107.766 342.266 108.01 342.255 108.25C342.241 108.488 342.201 108.78 342.135 109.126L343.936 108.118L344.334 108.341L341.815 109.749L341.475 109.559ZM342.995 106.976C342.394 106.64 342.024 106.323 341.884 106.027C341.741 105.728 341.914 105.442 342.403 105.169C342.888 104.897 343.398 104.802 343.932 104.882C344.463 104.96 345.028 105.167 345.629 105.503C346.24 105.844 346.617 106.164 346.76 106.463C346.903 106.762 346.732 107.047 346.247 107.318C345.758 107.591 345.246 107.688 344.712 107.608C344.178 107.528 343.606 107.317 342.995 106.976ZM345.157 105.766C344.854 105.596 344.576 105.464 344.325 105.371C344.073 105.273 343.82 105.223 343.565 105.221C343.314 105.217 343.071 105.281 342.838 105.412C342.6 105.545 342.483 105.682 342.487 105.825C342.494 105.965 342.583 106.107 342.754 106.249C342.925 106.388 343.162 106.542 343.466 106.712C343.78 106.888 344.063 107.024 344.314 107.122C344.569 107.218 344.822 107.267 345.074 107.271C345.329 107.273 345.575 107.208 345.812 107.075C346.046 106.944 346.159 106.809 346.152 106.668C346.149 106.526 346.06 106.384 345.885 106.243C345.714 106.101 345.472 105.942 345.157 105.766ZM346.283 105.137C345.683 104.801 345.312 104.485 345.173 104.188C345.03 103.889 345.202 103.603 345.691 103.33C346.177 103.059 346.686 102.963 347.22 103.043C347.751 103.121 348.317 103.328 348.917 103.664C349.528 104.005 349.905 104.326 350.048 104.624C350.191 104.923 350.02 105.208 349.535 105.479C349.046 105.753 348.535 105.849 348.001 105.769C347.467 105.689 346.894 105.478 346.283 105.137ZM348.446 103.927C348.142 103.757 347.865 103.626 347.613 103.532C347.362 103.434 347.109 103.385 346.854 103.383C346.602 103.379 346.36 103.442 346.126 103.573C345.888 103.706 345.772 103.843 345.775 103.986C345.782 104.126 345.871 104.268 346.042 104.41C346.213 104.549 346.451 104.703 346.754 104.873C347.069 105.049 347.351 105.185 347.603 105.283C347.858 105.379 348.111 105.429 348.362 105.432C348.617 105.434 348.863 105.369 349.1 105.236C349.334 105.105 349.448 104.97 349.441 104.829C349.437 104.687 349.348 104.545 349.174 104.405C349.003 104.262 348.76 104.103 348.446 103.927Z" fill="white"/>
<path d="M353.796 121.507L353.362 121.263L354.346 120.713L358.132 122.83L357.65 123.1L354.299 121.225L353.796 121.507ZM359.213 122.261C359.122 122.312 359.014 122.337 358.888 122.337C358.762 122.337 358.654 122.312 358.563 122.261C358.473 122.21 358.427 122.15 358.427 122.08C358.427 122.009 358.473 121.949 358.563 121.898C358.651 121.849 358.755 121.826 358.878 121.828C359.003 121.828 359.111 121.853 359.202 121.904C359.293 121.955 359.338 122.015 359.338 122.085C359.342 122.154 359.3 122.212 359.213 122.261ZM356.573 119.954L356.138 119.711L357.123 119.16L360.909 121.277L360.427 121.547L357.076 119.673L356.573 119.954ZM358.251 119.016L357.816 118.773L358.8 118.222L362.587 120.339L362.105 120.609L358.753 118.735L358.251 119.016ZM362.127 118.394C361.855 118.46 361.593 118.482 361.342 118.458C361.091 118.435 360.86 118.365 360.651 118.248C360.462 118.142 360.34 118.021 360.284 117.884C360.225 117.746 360.244 117.6 360.342 117.448C360.439 117.292 360.621 117.14 360.886 116.991C361.152 116.843 361.422 116.742 361.698 116.69C361.974 116.633 362.236 116.621 362.484 116.654C362.731 116.684 362.95 116.751 363.138 116.857C363.341 116.97 363.465 117.1 363.51 117.246C363.552 117.39 363.515 117.536 363.4 117.682C363.683 117.598 363.971 117.568 364.264 117.592C364.557 117.611 364.821 117.686 365.055 117.817C365.282 117.944 365.425 118.086 365.484 118.245C365.54 118.401 365.512 118.563 365.4 118.731C365.289 118.895 365.1 119.051 364.835 119.199C364.57 119.348 364.29 119.453 363.997 119.516C363.704 119.574 363.417 119.588 363.138 119.557C362.855 119.523 362.601 119.443 362.374 119.316C362.14 119.186 362.002 119.038 361.96 118.874C361.918 118.71 361.974 118.55 362.127 118.394ZM362.735 117.146C362.522 117.027 362.288 116.975 362.033 116.988C361.778 117.002 361.529 117.077 361.284 117.214C361.043 117.349 360.911 117.487 360.886 117.63C360.862 117.772 360.958 117.904 361.174 118.025C361.37 118.134 361.599 118.182 361.86 118.168C362.126 118.153 362.374 118.081 362.604 117.952C362.838 117.821 362.967 117.682 362.992 117.536C363.016 117.386 362.93 117.256 362.735 117.146ZM362.971 118.157C362.712 118.301 362.562 118.454 362.52 118.614C362.475 118.772 362.573 118.918 362.813 119.053C363.037 119.178 363.295 119.234 363.589 119.223C363.885 119.209 364.168 119.127 364.437 118.977C364.706 118.826 364.851 118.669 364.872 118.505C364.893 118.341 364.791 118.197 364.568 118.072C364.334 117.941 364.076 117.886 363.793 117.908C363.506 117.927 363.232 118.01 362.971 118.157ZM364.777 116.954C364.176 116.618 363.806 116.302 363.666 116.005C363.523 115.706 363.696 115.42 364.185 115.147C364.67 114.875 365.18 114.78 365.714 114.86C366.245 114.938 366.81 115.145 367.411 115.481C368.022 115.822 368.399 116.142 368.542 116.441C368.685 116.74 368.514 117.025 368.029 117.296C367.54 117.57 367.028 117.666 366.494 117.586C365.96 117.506 365.388 117.295 364.777 116.954ZM366.939 115.744C366.636 115.574 366.358 115.443 366.107 115.349C365.855 115.251 365.602 115.201 365.347 115.199C365.096 115.196 364.853 115.259 364.619 115.39C364.382 115.523 364.265 115.66 364.269 115.803C364.276 115.943 364.365 116.085 364.536 116.227C364.707 116.366 364.944 116.52 365.248 116.69C365.562 116.866 365.845 117.002 366.096 117.1C366.351 117.196 366.604 117.245 366.856 117.249C367.11 117.251 367.357 117.186 367.594 117.053C367.828 116.922 367.941 116.787 367.934 116.646C367.931 116.504 367.842 116.362 367.667 116.222C367.496 116.079 367.254 115.92 366.939 115.744Z" fill="white"/>
<path d="M373.609 132.586L373.174 132.343L374.159 131.792L377.945 133.909L377.463 134.179L374.111 132.305L373.609 132.586ZM379.025 133.34C378.934 133.391 378.826 133.416 378.701 133.416C378.575 133.416 378.467 133.391 378.376 133.34C378.285 133.289 378.24 133.229 378.24 133.159C378.24 133.088 378.285 133.028 378.376 132.977C378.463 132.928 378.568 132.905 378.69 132.907C378.816 132.907 378.924 132.932 379.015 132.983C379.105 133.034 379.151 133.094 379.151 133.165C379.154 133.233 379.112 133.291 379.025 133.34ZM376.386 131.033L375.951 130.79L376.935 130.239L380.722 132.356L380.24 132.626L376.888 130.752L376.386 131.033ZM378.063 130.095L377.628 129.852L378.613 129.301L382.399 131.418L381.917 131.688L378.566 129.814L378.063 130.095ZM382.443 128.167C381.978 127.993 381.545 128.019 381.144 128.243C380.833 128.417 380.722 128.614 380.809 128.835C380.893 129.053 381.21 129.315 381.762 129.619C381.661 129.473 381.652 129.32 381.736 129.16C381.82 128.996 381.977 128.849 382.207 128.72C382.567 128.519 382.965 128.422 383.401 128.428C383.841 128.432 384.258 128.544 384.653 128.764C384.89 128.897 385.056 129.043 385.15 129.201C385.248 129.357 385.258 129.519 385.182 129.687C385.108 129.853 384.939 130.01 384.674 130.158C384.314 130.359 383.953 130.472 383.59 130.495C383.226 130.518 382.863 130.474 382.5 130.36C382.137 130.247 381.748 130.074 381.332 129.842C380.051 129.126 379.857 128.517 380.751 128.018C381.093 127.826 381.455 127.728 381.835 127.722C382.216 127.716 382.565 127.782 382.883 127.921L382.443 128.167ZM382.511 129.002C382.361 129.086 382.251 129.182 382.181 129.292C382.108 129.399 382.092 129.511 382.134 129.628C382.176 129.741 382.286 129.848 382.464 129.947C382.729 130.096 383.022 130.174 383.343 130.182C383.661 130.188 383.963 130.11 384.249 129.95C384.494 129.814 384.612 129.663 384.606 129.499C384.599 129.332 384.466 129.175 384.208 129.031C383.935 128.879 383.652 128.799 383.359 128.791C383.062 128.781 382.78 128.851 382.511 129.002ZM384.61 128.021C384.009 127.685 383.639 127.369 383.499 127.072C383.356 126.774 383.529 126.488 384.018 126.214C384.503 125.943 385.013 125.847 385.547 125.927C386.078 126.006 386.643 126.212 387.244 126.548C387.855 126.89 388.232 127.21 388.375 127.509C388.518 127.807 388.347 128.093 387.862 128.364C387.373 128.637 386.861 128.734 386.327 128.654C385.793 128.574 385.22 128.363 384.61 128.021ZM386.772 126.812C386.469 126.642 386.191 126.51 385.94 126.417C385.688 126.319 385.435 126.269 385.18 126.267C384.929 126.263 384.686 126.327 384.452 126.458C384.215 126.59 384.098 126.728 384.102 126.87C384.109 127.011 384.198 127.153 384.369 127.295C384.54 127.434 384.777 127.588 385.081 127.758C385.395 127.933 385.678 128.07 385.929 128.168C386.184 128.263 386.437 128.313 386.689 128.317C386.943 128.319 387.19 128.254 387.427 128.121C387.661 127.99 387.774 127.854 387.767 127.714C387.764 127.571 387.675 127.43 387.5 127.289C387.329 127.147 387.087 126.988 386.772 126.812Z" fill="white"/>
<path d="M393.422 143.665L392.987 143.422L393.972 142.871L397.758 144.988L397.276 145.258L393.924 143.384L393.422 143.665ZM398.838 144.419C398.747 144.47 398.639 144.495 398.514 144.495C398.388 144.495 398.28 144.47 398.189 144.419C398.098 144.369 398.053 144.308 398.053 144.238C398.053 144.168 398.098 144.107 398.189 144.056C398.276 144.007 398.381 143.984 398.503 143.986C398.629 143.986 398.737 144.011 398.828 144.062C398.918 144.113 398.964 144.173 398.964 144.244C398.967 144.312 398.925 144.371 398.838 144.419ZM396.199 142.112L395.764 141.869L396.748 141.318L400.535 143.436L400.053 143.705L396.701 141.831L396.199 142.112ZM397.876 141.174L397.441 140.931L398.426 140.38L402.212 142.498L401.73 142.767L398.379 140.893L397.876 141.174ZM402.072 141.633L401.711 141.431L401.004 138.98L401.575 138.66L404.068 140.054L404.591 139.761L405.005 139.993L404.481 140.286L405.324 140.757L404.853 141.021L404.01 140.549L402.072 141.633ZM401.622 139.19L402.209 141.094L403.617 140.306L401.622 139.19ZM404.392 139.118C403.791 138.782 403.421 138.465 403.282 138.169C403.138 137.87 403.311 137.584 403.8 137.311C404.285 137.039 404.795 136.944 405.329 137.024C405.86 137.102 406.425 137.309 407.026 137.645C407.637 137.986 408.014 138.306 408.157 138.605C408.3 138.904 408.129 139.189 407.644 139.46C407.155 139.733 406.644 139.83 406.11 139.75C405.575 139.67 405.003 139.459 404.392 139.118ZM406.555 137.908C406.251 137.738 405.973 137.606 405.722 137.513C405.471 137.415 405.217 137.365 404.963 137.363C404.711 137.36 404.469 137.423 404.235 137.554C403.997 137.687 403.88 137.824 403.884 137.967C403.891 138.107 403.98 138.249 404.151 138.391C404.322 138.53 404.559 138.684 404.863 138.854C405.177 139.03 405.46 139.166 405.712 139.264C405.966 139.36 406.219 139.409 406.471 139.413C406.726 139.415 406.972 139.35 407.209 139.217C407.443 139.086 407.557 138.951 407.55 138.81C407.546 138.668 407.457 138.526 407.283 138.385C407.111 138.243 406.869 138.084 406.555 137.908Z" fill="white"/>
<path d="M413.234 154.744L412.799 154.501L413.784 153.95L417.57 156.067L417.088 156.337L413.737 154.463L413.234 154.744ZM418.651 155.498C418.56 155.549 418.452 155.575 418.326 155.575C418.2 155.575 418.092 155.549 418.001 155.498C417.911 155.448 417.865 155.387 417.865 155.317C417.865 155.247 417.911 155.186 418.001 155.135C418.089 155.086 418.193 155.063 418.316 155.065C418.441 155.065 418.549 155.09 418.64 155.141C418.731 155.192 418.776 155.252 418.776 155.323C418.78 155.391 418.738 155.45 418.651 155.498ZM416.011 153.191L415.576 152.948L416.561 152.397L420.347 154.515L419.865 154.784L416.514 152.91L416.011 153.191ZM417.689 152.253L417.254 152.01L418.238 151.459L422.025 153.577L421.543 153.846L418.191 151.972L417.689 152.253ZM422.403 152.937C422.491 152.49 422.546 152.133 422.571 151.865C422.592 151.596 422.564 151.344 422.487 151.11C422.41 150.872 422.251 150.685 422.011 150.551C421.784 150.424 421.55 150.355 421.309 150.346C421.068 150.332 420.825 150.393 420.581 150.53C420.344 150.663 420.234 150.808 420.251 150.966C420.268 151.121 420.396 151.27 420.633 151.415L420.172 151.672C419.795 151.446 419.612 151.21 419.623 150.966C419.633 150.722 419.815 150.502 420.167 150.305C420.527 150.104 420.911 150 421.319 149.994C421.731 149.986 422.112 150.08 422.461 150.275C422.751 150.437 422.946 150.644 423.047 150.896C423.149 151.144 423.194 151.388 423.184 151.628C423.17 151.866 423.13 152.158 423.063 152.504L424.865 151.496L425.263 151.719L422.744 153.128L422.403 152.937ZM423.923 150.354C423.323 150.018 422.952 149.702 422.813 149.405C422.67 149.106 422.843 148.82 423.331 148.547C423.817 148.276 424.326 148.18 424.86 148.26C425.391 148.338 425.957 148.545 426.557 148.881C427.168 149.223 427.545 149.543 427.688 149.841C427.831 150.14 427.66 150.425 427.175 150.696C426.686 150.97 426.175 151.066 425.641 150.986C425.107 150.906 424.534 150.695 423.923 150.354ZM426.086 149.144C425.782 148.975 425.505 148.843 425.253 148.749C425.002 148.651 424.749 148.602 424.494 148.6C424.242 148.596 424 148.659 423.766 148.79C423.529 148.923 423.412 149.06 423.415 149.203C423.422 149.344 423.511 149.485 423.682 149.628C423.853 149.766 424.091 149.92 424.394 150.09C424.709 150.266 424.991 150.403 425.243 150.5C425.498 150.596 425.751 150.646 426.002 150.65C426.257 150.652 426.503 150.586 426.74 150.453C426.974 150.323 427.088 150.187 427.081 150.046C427.077 149.904 426.988 149.762 426.814 149.622C426.643 149.479 426.4 149.32 426.086 149.144Z" fill="white"/>
<path d="M110 212.458L110 33.4585C110 21.8605 100.598 12.4585 89 12.4585L83.5 12.4585" stroke="white" stroke-opacity="0.5" stroke-linecap="round" stroke-linejoin="round" stroke-dasharray="4 4"/>
<path d="M338 141.458L338 33.4585C338 21.8605 347.402 12.4585 359 12.4585L371.5 12.4585" stroke="white" stroke-opacity="0.5" stroke-linecap="round" stroke-linejoin="round" stroke-dasharray="4 4"/>
<path d="M177.702 149.458L177.702 28.9585" stroke="white" stroke-opacity="0.5" stroke-linecap="round" stroke-linejoin="round" stroke-dasharray="4 4"/>
<path d="M388.513 16.3698C388.656 16.619 389.016 16.619 389.16 16.3698L393.369 9.0797C393.513 8.83046 393.333 8.51892 393.045 8.51892H384.627C384.34 8.51892 384.16 8.83046 384.304 9.0797L388.513 16.3698Z" fill="#FF002E"/>
<path d="M404.647 11.765V12.9996H399.361V11.765H404.647ZM406.537 12.228C406.537 10.7447 406.785 9.58727 407.283 8.75563C407.788 7.91541 408.654 7.4953 409.88 7.4953C411.106 7.4953 411.968 7.91541 412.465 8.75563C412.971 9.58727 413.224 10.7447 413.224 12.228C413.224 13.7283 412.971 14.9029 412.465 15.7517C411.968 16.592 411.106 17.0121 409.88 17.0121C408.654 17.0121 407.788 16.592 407.283 15.7517C406.785 14.9029 406.537 13.7283 406.537 12.228ZM411.784 12.228C411.784 11.5335 411.737 10.9462 411.642 10.4661C411.557 9.98595 411.377 9.59585 411.102 9.29577C410.828 8.98712 410.421 8.83279 409.88 8.83279C409.34 8.83279 408.933 8.98712 408.659 9.29577C408.384 9.59585 408.2 9.98595 408.106 10.4661C408.02 10.9462 407.977 11.5335 407.977 12.228C407.977 12.9481 408.02 13.5526 408.106 14.0413C408.191 14.53 408.371 14.9244 408.646 15.2245C408.929 15.5245 409.34 15.6746 409.88 15.6746C410.421 15.6746 410.828 15.5245 411.102 15.2245C411.385 14.9244 411.569 14.53 411.655 14.0413C411.741 13.5526 411.784 12.9481 411.784 12.228ZM415.56 17.1278C415.294 17.1278 415.071 17.0378 414.891 16.8577C414.711 16.6777 414.621 16.4548 414.621 16.189C414.621 15.9232 414.711 15.7003 414.891 15.5202C415.071 15.3402 415.294 15.2502 415.56 15.2502C415.817 15.2502 416.036 15.3402 416.216 15.5202C416.396 15.7003 416.486 15.9232 416.486 16.189C416.486 16.4548 416.396 16.6777 416.216 16.8577C416.036 17.0378 415.817 17.1278 415.56 17.1278ZM422.919 9.83591C422.825 9.44152 422.653 9.14573 422.404 8.94854C422.156 8.75134 421.809 8.65274 421.363 8.65274C420.685 8.65274 420.18 8.91424 419.845 9.43723C419.511 9.95165 419.335 10.809 419.318 12.0093C419.541 11.6321 419.867 11.3406 420.295 11.1348C420.724 10.9291 421.187 10.8262 421.684 10.8262C422.25 10.8262 422.747 10.9505 423.176 11.1991C423.613 11.4392 423.952 11.7907 424.192 12.2537C424.441 12.7167 424.565 13.2697 424.565 13.9127C424.565 14.5128 424.445 15.0487 424.205 15.5202C423.973 15.9918 423.626 16.3647 423.163 16.6391C422.7 16.9049 422.143 17.0378 421.491 17.0378C420.608 17.0378 419.914 16.8449 419.408 16.4591C418.911 16.0647 418.559 15.5117 418.353 14.8001C418.156 14.0884 418.058 13.2011 418.058 12.1379C418.058 8.99998 419.164 7.431 421.376 7.431C422.233 7.431 422.906 7.66249 423.395 8.12546C423.892 8.58844 424.183 9.15859 424.269 9.83591H422.919ZM421.363 12.0608C420.84 12.0608 420.394 12.2194 420.025 12.5366C419.665 12.8453 419.485 13.2954 419.485 13.887C419.485 14.4785 419.652 14.9501 419.987 15.3016C420.33 15.6446 420.805 15.816 421.414 15.816C421.954 15.816 422.379 15.6488 422.687 15.3145C423.005 14.9801 423.163 14.5343 423.163 13.977C423.163 13.394 423.009 12.931 422.7 12.5881C422.4 12.2365 421.954 12.0608 421.363 12.0608ZM426.939 15.0444C427.762 14.3328 428.409 13.7498 428.881 13.2954C429.361 12.8324 429.76 12.3523 430.077 11.855C430.394 11.3577 430.553 10.8605 430.553 10.3632C430.553 9.84877 430.429 9.44581 430.18 9.1543C429.94 8.8628 429.558 8.71705 429.035 8.71705C428.529 8.71705 428.135 8.87995 427.852 9.20575C427.578 9.52297 427.432 9.95165 427.415 10.4918H426C426.026 9.5144 426.317 8.76849 426.875 8.25407C427.441 7.73108 428.157 7.46958 429.022 7.46958C429.957 7.46958 430.686 7.72679 431.209 8.24121C431.74 8.75563 432.006 9.44152 432.006 10.2989C432.006 10.9162 431.847 11.5121 431.53 12.0865C431.222 12.6524 430.849 13.1625 430.411 13.6169C429.983 14.0627 429.434 14.5814 428.765 15.173L428.187 15.6874H432.263V16.9092H426.013V15.8418L426.939 15.0444ZM433.32 9.92593C433.32 9.30006 433.5 8.81136 433.86 8.45984C434.229 8.09974 434.7 7.9197 435.275 7.9197C435.849 7.9197 436.316 8.09974 436.676 8.45984C437.045 8.81136 437.229 9.30006 437.229 9.92593C437.229 10.5518 437.045 11.0448 436.676 11.4049C436.316 11.765 435.849 11.945 435.275 11.945C434.7 11.945 434.229 11.765 433.86 11.4049C433.5 11.0448 433.32 10.5518 433.32 9.92593ZM441.165 8.08688L436.033 17.0378H434.593L439.724 8.08688H441.165ZM435.275 8.80707C434.734 8.80707 434.464 9.18002 434.464 9.92593C434.464 10.6804 434.734 11.0577 435.275 11.0577C435.532 11.0577 435.729 10.9676 435.866 10.7876C436.012 10.599 436.085 10.3117 436.085 9.92593C436.085 9.18002 435.815 8.80707 435.275 8.80707ZM438.554 15.1859C438.554 14.56 438.734 14.0713 439.094 13.7198C439.463 13.3597 439.934 13.1796 440.509 13.1796C441.075 13.1796 441.538 13.3597 441.898 13.7198C442.266 14.0713 442.451 14.56 442.451 15.1859C442.451 15.8117 442.266 16.3047 441.898 16.6648C441.538 17.0249 441.075 17.205 440.509 17.205C439.934 17.205 439.463 17.0249 439.094 16.6648C438.734 16.3047 438.554 15.8117 438.554 15.1859ZM440.496 14.067C439.956 14.067 439.686 14.44 439.686 15.1859C439.686 15.9318 439.956 16.3047 440.496 16.3047C441.036 16.3047 441.306 15.9318 441.306 15.1859C441.306 14.44 441.036 14.067 440.496 14.067Z" fill="#FF002E"/>
<rect x="373.402" y="0.40189" width="80.6915" height="24.2718" rx="12.1359" stroke="#31B95F" stroke-opacity="0.5" stroke-width="0.80378"/>
<path d="M15.5125 8.70582C15.6564 8.45659 16.0162 8.45659 16.16 8.70582L20.369 15.9959C20.5129 16.2452 20.333 16.5567 20.0452 16.5567H11.6273C11.3395 16.5567 11.1597 16.2452 11.3036 15.9959L15.5125 8.70582Z" fill="#31B95F"/>
<path d="M33.1128 13.0124H30.515V15.6746H29.1518V13.0124H26.554V11.7778H29.1518V9.11572H30.515V11.7778H33.1128V13.0124ZM35.1945 12.228C35.1945 10.7447 35.4431 9.58727 35.9404 8.75563C36.4462 7.91541 37.3122 7.4953 38.5382 7.4953C39.7643 7.4953 40.6259 7.91541 41.1232 8.75563C41.629 9.58727 41.8819 10.7447 41.8819 12.228C41.8819 13.7283 41.629 14.9029 41.1232 15.7517C40.6259 16.592 39.7643 17.0121 38.5382 17.0121C37.3122 17.0121 36.4462 16.592 35.9404 15.7517C35.4431 14.9029 35.1945 13.7283 35.1945 12.228ZM40.4416 12.228C40.4416 11.5335 40.3944 10.9462 40.3001 10.4661C40.2144 9.98595 40.0343 9.59585 39.76 9.29577C39.4856 8.98712 39.0784 8.83279 38.5382 8.83279C37.9981 8.83279 37.5908 8.98712 37.3165 9.29577C37.0421 9.59585 36.8578 9.98595 36.7635 10.4661C36.6777 10.9462 36.6349 11.5335 36.6349 12.228C36.6349 12.9481 36.6777 13.5526 36.7635 14.0413C36.8492 14.53 37.0293 14.9244 37.3036 15.2245C37.5865 15.5245 37.9981 15.6746 38.5382 15.6746C39.0784 15.6746 39.4856 15.5245 39.76 15.2245C40.0429 14.9244 40.2272 14.53 40.313 14.0413C40.3987 13.5526 40.4416 12.9481 40.4416 12.228ZM44.2177 17.1278C43.9519 17.1278 43.729 17.0378 43.549 16.8577C43.3689 16.6777 43.2789 16.4548 43.2789 16.189C43.2789 15.9232 43.3689 15.7003 43.549 15.5202C43.729 15.3402 43.9519 15.2502 44.2177 15.2502C44.4749 15.2502 44.6936 15.3402 44.8736 15.5202C45.0537 15.7003 45.1437 15.9232 45.1437 16.189C45.1437 16.4548 45.0537 16.6777 44.8736 16.8577C44.6936 17.0378 44.4749 17.1278 44.2177 17.1278ZM51.5766 9.83591C51.4823 9.44152 51.3109 9.14573 51.0622 8.94854C50.8136 8.75134 50.4664 8.65274 50.0205 8.65274C49.3432 8.65274 48.8374 8.91424 48.503 9.43723C48.1686 9.95165 47.9929 10.809 47.9757 12.0093C48.1986 11.6321 48.5244 11.3406 48.9531 11.1348C49.3818 10.9291 49.8448 10.8262 50.342 10.8262C50.9079 10.8262 51.4052 10.9505 51.8339 11.1991C52.2711 11.4392 52.6098 11.7907 52.8498 12.2537C53.0985 12.7167 53.2228 13.2697 53.2228 13.9127C53.2228 14.5128 53.1028 15.0487 52.8627 15.5202C52.6312 15.9918 52.284 16.3647 51.821 16.6391C51.358 16.9049 50.8007 17.0378 50.1491 17.0378C49.266 17.0378 48.5716 16.8449 48.0657 16.4591C47.5685 16.0647 47.2169 15.5117 47.0112 14.8001C46.814 14.0884 46.7154 13.2011 46.7154 12.1379C46.7154 8.99998 47.8214 7.431 50.0334 7.431C50.8908 7.431 51.5638 7.66249 52.0525 8.12546C52.5498 8.58844 52.8413 9.15859 52.927 9.83591H51.5766ZM50.0205 12.0608C49.4975 12.0608 49.0517 12.2194 48.683 12.5366C48.3229 12.8453 48.1429 13.2954 48.1429 13.887C48.1429 14.4785 48.3101 14.9501 48.6445 15.3016C48.9874 15.6446 49.4632 15.816 50.072 15.816C50.6121 15.816 51.0365 15.6488 51.3452 15.3145C51.6624 14.9801 51.821 14.5343 51.821 13.977C51.821 13.394 51.6667 12.931 51.358 12.5881C51.0579 12.2365 50.6121 12.0608 50.0205 12.0608ZM55.5969 15.0444C56.4199 14.3328 57.0672 13.7498 57.5388 13.2954C58.0189 12.8324 58.4176 12.3523 58.7348 11.855C59.052 11.3577 59.2106 10.8605 59.2106 10.3632C59.2106 9.84877 59.0863 9.44581 58.8377 9.1543C58.5976 8.8628 58.2161 8.71705 57.6931 8.71705C57.1873 8.71705 56.7929 8.87995 56.5099 9.20575C56.2356 9.52297 56.0898 9.95165 56.0727 10.4918H54.658C54.6838 9.5144 54.9753 8.76849 55.5325 8.25407C56.0984 7.73108 56.8143 7.46958 57.6802 7.46958C58.6148 7.46958 59.3435 7.72679 59.8665 8.24121C60.3981 8.75563 60.6639 9.44152 60.6639 10.2989C60.6639 10.9162 60.5053 11.5121 60.188 12.0865C59.8794 12.6524 59.5064 13.1625 59.0692 13.6169C58.6405 14.0627 58.0918 14.5814 57.423 15.173L56.8443 15.6874H60.9211V16.9092H54.6709V15.8418L55.5969 15.0444ZM61.9776 9.92593C61.9776 9.30006 62.1576 8.81136 62.5177 8.45984C62.8864 8.09974 63.3579 7.9197 63.9324 7.9197C64.5068 7.9197 64.9741 8.09974 65.3341 8.45984C65.7028 8.81136 65.8871 9.30006 65.8871 9.92593C65.8871 10.5518 65.7028 11.0448 65.3341 11.4049C64.9741 11.765 64.5068 11.945 63.9324 11.945C63.3579 11.945 62.8864 11.765 62.5177 11.4049C62.1576 11.0448 61.9776 10.5518 61.9776 9.92593ZM69.8225 8.08688L64.6911 17.0378H63.2507L68.3821 8.08688H69.8225ZM63.9324 8.80707C63.3922 8.80707 63.1221 9.18002 63.1221 9.92593C63.1221 10.6804 63.3922 11.0577 63.9324 11.0577C64.1896 11.0577 64.3868 10.9676 64.5239 10.7876C64.6697 10.599 64.7426 10.3117 64.7426 9.92593C64.7426 9.18002 64.4725 8.80707 63.9324 8.80707ZM67.2118 15.1859C67.2118 14.56 67.3918 14.0713 67.7519 13.7198C68.1206 13.3597 68.5921 13.1796 69.1666 13.1796C69.7324 13.1796 70.1954 13.3597 70.5555 13.7198C70.9242 14.0713 71.1085 14.56 71.1085 15.1859C71.1085 15.8117 70.9242 16.3047 70.5555 16.6648C70.1954 17.0249 69.7324 17.205 69.1666 17.205C68.5921 17.205 68.1206 17.0249 67.7519 16.6648C67.3918 16.3047 67.2118 15.8117 67.2118 15.1859ZM69.1537 14.067C68.6136 14.067 68.3435 14.44 68.3435 15.1859C68.3435 15.9318 68.6136 16.3047 69.1537 16.3047C69.6939 16.3047 69.9639 15.9318 69.9639 15.1859C69.9639 14.44 69.6939 14.067 69.1537 14.067Z" fill="#31B95F"/>
<rect x="0.40189" y="0.40189" width="82.6915" height="24.2718" rx="12.1359" stroke="#31B95F" stroke-opacity="0.5" stroke-width="0.80378"/>
<path d="M153.668 8.70582C153.812 8.45659 154.172 8.45659 154.316 8.70582L158.525 15.9959C158.669 16.2452 158.489 16.5567 158.201 16.5567H149.783C149.495 16.5567 149.315 16.2452 149.459 15.9959L153.668 8.70582Z" fill="#31B95F"/>
<path d="M171.269 13.0124H168.671V15.6746H167.308V13.0124H164.71V11.7778H167.308V9.11572H168.671V11.7778H171.269V13.0124ZM173.35 12.228C173.35 10.7447 173.599 9.58727 174.096 8.75563C174.602 7.91541 175.468 7.4953 176.694 7.4953C177.92 7.4953 178.782 7.91541 179.279 8.75563C179.785 9.58727 180.038 10.7447 180.038 12.228C180.038 13.7283 179.785 14.9029 179.279 15.7517C178.782 16.592 177.92 17.0121 176.694 17.0121C175.468 17.0121 174.602 16.592 174.096 15.7517C173.599 14.9029 173.35 13.7283 173.35 12.228ZM178.597 12.228C178.597 11.5335 178.55 10.9462 178.456 10.4661C178.37 9.98595 178.19 9.59585 177.916 9.29577C177.641 8.98712 177.234 8.83279 176.694 8.83279C176.154 8.83279 175.747 8.98712 175.472 9.29577C175.198 9.59585 175.014 9.98595 174.919 10.4661C174.833 10.9462 174.791 11.5335 174.791 12.228C174.791 12.9481 174.833 13.5526 174.919 14.0413C175.005 14.53 175.185 14.9244 175.459 15.2245C175.742 15.5245 176.154 15.6746 176.694 15.6746C177.234 15.6746 177.641 15.5245 177.916 15.2245C178.199 14.9244 178.383 14.53 178.469 14.0413C178.554 13.5526 178.597 12.9481 178.597 12.228ZM182.373 17.1278C182.108 17.1278 181.885 17.0378 181.705 16.8577C181.525 16.6777 181.435 16.4548 181.435 16.189C181.435 15.9232 181.525 15.7003 181.705 15.5202C181.885 15.3402 182.108 15.2502 182.373 15.2502C182.631 15.2502 182.849 15.3402 183.029 15.5202C183.209 15.7003 183.299 15.9232 183.299 16.189C183.299 16.4548 183.209 16.6777 183.029 16.8577C182.849 17.0378 182.631 17.1278 182.373 17.1278ZM186.273 12.1379C185.381 11.6921 184.935 10.9891 184.935 10.0288C184.935 9.56584 185.051 9.14144 185.283 8.75563C185.514 8.36981 185.861 8.06545 186.324 7.84253C186.787 7.61104 187.353 7.4953 188.022 7.4953C188.682 7.4953 189.244 7.61104 189.707 7.84253C190.178 8.06545 190.53 8.36981 190.761 8.75563C190.993 9.14144 191.108 9.56584 191.108 10.0288C191.108 10.5089 190.984 10.9333 190.736 11.302C190.495 11.6621 190.174 11.9407 189.771 12.1379C190.26 12.318 190.645 12.6138 190.928 13.0253C191.211 13.4283 191.353 13.9041 191.353 14.4528C191.353 15.0101 191.211 15.5031 190.928 15.9318C190.645 16.3605 190.251 16.6905 189.745 16.922C189.239 17.1535 188.665 17.2693 188.022 17.2693C187.379 17.2693 186.805 17.1535 186.299 16.922C185.801 16.6905 185.411 16.3605 185.128 15.9318C184.845 15.5031 184.704 15.0101 184.704 14.4528C184.704 13.8955 184.845 13.4154 185.128 13.0124C185.411 12.6095 185.793 12.318 186.273 12.1379ZM189.707 10.2089C189.707 9.72874 189.557 9.36007 189.257 9.10286C188.956 8.84565 188.545 8.71705 188.022 8.71705C187.508 8.71705 187.1 8.84565 186.8 9.10286C186.5 9.36007 186.35 9.73302 186.35 10.2217C186.35 10.6504 186.504 11.0019 186.813 11.2763C187.13 11.5421 187.533 11.675 188.022 11.675C188.511 11.675 188.914 11.5378 189.231 11.2634C189.548 10.9891 189.707 10.6375 189.707 10.2089ZM188.022 12.781C187.456 12.781 186.993 12.9224 186.633 13.2054C186.282 13.4797 186.106 13.8784 186.106 14.4014C186.106 14.8901 186.277 15.2888 186.62 15.5974C186.963 15.8975 187.43 16.0475 188.022 16.0475C188.605 16.0475 189.064 15.8932 189.398 15.5845C189.741 15.2759 189.912 14.8815 189.912 14.4014C189.912 13.887 189.737 13.4883 189.385 13.2054C189.042 12.9224 188.588 12.781 188.022 12.781ZM198.834 8.79421L195.258 17.0378H193.78L197.393 8.94854H192.635V7.70107H198.834V8.79421ZM199.857 9.92593C199.857 9.30006 200.037 8.81136 200.397 8.45984C200.766 8.09974 201.237 7.9197 201.812 7.9197C202.386 7.9197 202.854 8.09974 203.214 8.45984C203.582 8.81136 203.767 9.30006 203.767 9.92593C203.767 10.5518 203.582 11.0448 203.214 11.4049C202.854 11.765 202.386 11.945 201.812 11.945C201.237 11.945 200.766 11.765 200.397 11.4049C200.037 11.0448 199.857 10.5518 199.857 9.92593ZM207.702 8.08688L202.571 17.0378H201.13L206.262 8.08688H207.702ZM201.812 8.80707C201.272 8.80707 201.002 9.18002 201.002 9.92593C201.002 10.6804 201.272 11.0577 201.812 11.0577C202.069 11.0577 202.266 10.9676 202.403 10.7876C202.549 10.599 202.622 10.3117 202.622 9.92593C202.622 9.18002 202.352 8.80707 201.812 8.80707ZM205.091 15.1859C205.091 14.56 205.271 14.0713 205.631 13.7198C206 13.3597 206.472 13.1796 207.046 13.1796C207.612 13.1796 208.075 13.3597 208.435 13.7198C208.804 14.0713 208.988 14.56 208.988 15.1859C208.988 15.8117 208.804 16.3047 208.435 16.6648C208.075 17.0249 207.612 17.205 207.046 17.205C206.472 17.205 206 17.0249 205.631 16.6648C205.271 16.3047 205.091 15.8117 205.091 15.1859ZM207.033 14.067C206.493 14.067 206.223 14.44 206.223 15.1859C206.223 15.9318 206.493 16.3047 207.033 16.3047C207.573 16.3047 207.843 15.9318 207.843 15.1859C207.843 14.44 207.573 14.067 207.033 14.067Z" fill="#31B95F"/>
<rect x="138.558" y="0.40189" width="82.6915" height="24.2718" rx="12.1359" stroke="#31B95F" stroke-opacity="0.5" stroke-width="0.80378"/>
<defs>
<filter id="filter0_b_2199_844" x="0.228966" y="50.9328" width="466.292" height="291.051" filterUnits="userSpaceOnUse" color-interpolation-filters="sRGB">
<feFlood flood-opacity="0" result="BackgroundImageFix"/>
<feGaussianBlur in="BackgroundImageFix" stdDeviation="12.5845"/>
<feComposite in2="SourceAlpha" operator="in" result="effect1_backgroundBlur_2199_844"/>
<feBlend mode="normal" in="SourceGraphic" in2="effect1_backgroundBlur_2199_844" result="shape"/>
</filter>
<filter id="filter1_b_2199_844" x="-0.43119" y="34.4398" width="467.625" height="293.998" filterUnits="userSpaceOnUse" color-interpolation-filters="sRGB">
<feFlood flood-opacity="0" result="BackgroundImageFix"/>
<feGaussianBlur in="BackgroundImageFix" stdDeviation="12.5845"/>
<feComposite in2="SourceAlpha" operator="in" result="effect1_backgroundBlur_2199_844"/>
<feBlend mode="normal" in="SourceGraphic" in2="effect1_backgroundBlur_2199_844" result="shape"/>
</filter>
<filter id="filter2_d_2199_844" x="128.617" y="105.654" width="167.042" height="162.029" filterUnits="userSpaceOnUse" color-interpolation-filters="sRGB">
<feFlood flood-opacity="0" result="BackgroundImageFix"/>
<feColorMatrix in="SourceAlpha" type="matrix" values="0 0 0 0 0 0 0 0 0 0 0 0 0 0 0 0 0 0 127 0" result="hardAlpha"/>
<feOffset dy="6.17624"/>
<feComposite in2="hardAlpha" operator="out"/>
<feColorMatrix type="matrix" values="0 0 0 0 0.117647 0 0 0 0 0.368627 0 0 0 0 0.207843 0 0 0 0.19 0"/>
<feBlend mode="normal" in2="BackgroundImageFix" result="effect1_dropShadow_2199_844"/>
<feBlend mode="normal" in="SourceGraphic" in2="effect1_dropShadow_2199_844" result="shape"/>
</filter>
<linearGradient id="paint0_linear_2199_844" x1="34.4957" y1="207.662" x2="235.576" y2="323.883" gradientUnits="userSpaceOnUse">
<stop stop-color="#238343"/>
<stop offset="0.574574" stop-color="#31B95F"/>
<stop offset="0.909054" stop-color="#1C6835"/>
</linearGradient>
<linearGradient id="paint1_linear_2199_844" x1="236.102" y1="184.79" x2="249.656" y2="296.283" gradientUnits="userSpaceOnUse">
<stop stop-color="#1C6B36" stop-opacity="0"/>
<stop offset="1" stop-color="#1C6B36"/>
</linearGradient>
<linearGradient id="paint2_linear_2199_844" x1="432.029" y1="187.809" x2="224.706" y2="11.2159" gradientUnits="userSpaceOnUse">
<stop stop-color="white" stop-opacity="0"/>
<stop offset="1" stop-color="#4DD079"/>
</linearGradient>
<linearGradient id="paint3_linear_2199_844" x1="267.61" y1="68.8371" x2="181.968" y2="300.722" gradientUnits="userSpaceOnUse">
<stop stop-color="#2A9E51" stop-opacity="0.4"/>
<stop offset="0.589141" stop-color="#5BBA7D" stop-opacity="0.8"/>
<stop offset="1" stop-color="#CBFFDF" stop-opacity="0.4"/>
</linearGradient>
<linearGradient id="paint4_linear_2199_844" x1="279.866" y1="57.0341" x2="294.321" y2="170.06" gradientUnits="userSpaceOnUse">
<stop stop-color="white" stop-opacity="0.22"/>
<stop offset="1" stop-color="#228744" stop-opacity="0"/>
</linearGradient>
<clipPath id="clip0_2199_844">
<rect width="291.268" height="188.908" fill="white" transform="matrix(0.868034 -0.496505 0.868034 0.496505 25 203.575)"/>
</clipPath>
</defs>
</svg>
